

<svg
   width="625"
   height="271"
   viewBox="0 0 625 271"
   version="1.1"
   id="SVGRoot"
   sodipodi:docname="C:\Users\miaal\AppData\Local\Temp\ink_ext_XXXXXX.svgRN9XC2"
   xml:space="preserve"
   xmlns:inkscape="http://www.inkscape.org/namespaces/inkscape"
   xmlns:sodipodi="http://sodipodi.sourceforge.net/DTD/sodipodi-0.dtd"
   xmlns:xlink="http://www.w3.org/1999/xlink"
   xmlns="http://www.w3.org/2000/svg"
   xmlns:svg="http://www.w3.org/2000/svg"><sodipodi:namedview
     id="namedview136"
     pagecolor="#505050"
     bordercolor="#ffffff"
     borderopacity="1"
     inkscape:showpageshadow="0"
     inkscape:pageopacity="0"
     inkscape:pagecheckerboard="1"
     inkscape:deskcolor="#505050"
     inkscape:document-units="px"
     showgrid="false"
     inkscape:zoom="0.25"
     inkscape:cx="1181.0"
     inkscape:cy="512.0"
     inkscape:window-width="1360"
     inkscape:window-height="715"
     inkscape:window-x="-8"
     inkscape:window-y="-8"
     inkscape:window-maximized="0"
     inkscape:current-layer="layer1"
     inkscape:lockguides="true" /><defs
     id="defs131" /><g
     inkscape:label="Camada 1"
     inkscape:groupmode="layer"
     id="layer1"
     style="display:inline"><path
       style="display:inline;opacity:1;fill:none;stroke:#ffffff;stroke-width:7;stroke-opacity:1"
       d="M 289.26055,97.302543 289.35895,77.074896 550.37054,55.999527 550.08906,219.38967 289.44469,198.1855 289.22781,177.16405"
       id="path266"
       sodipodi:nodetypes="cccccc" /><path
       style="opacity:1;fill:none;stroke:#ffffff;stroke-width:7;stroke-linecap:round;stroke-linejoin:round;stroke-opacity:1"
       d="m 81.323201,166.82547 0.177498,-59.42551 -28.240811,-0.0959 54.446942,0.21823"
       id="path1097"
       sodipodi:nodetypes="cccc" /><path
       style="display:inline;opacity:1;fill:none;stroke:#ffffff;stroke-width:7;stroke-linecap:round;stroke-linejoin:round;stroke-opacity:1"
       d="m 129.86386,107.74852 38.94525,-0.13909 c 5.40648,0.34506 7.94934,2.6803 8.1136,6.76906 l 0.45723,44.75634 c -0.46878,4.31894 -3.19571,7.51765 -8.26756,7.9079 l -40.53404,-0.0417 c -3.53178,-0.10764 -5.77706,-3.46855 -6.03223,-6.91739 l -0.18083,-44.54204 c 0.022,-4.19909 3.32235,-7.37142 7.49854,-7.83945 z"
       id="path1099"
       sodipodi:nodetypes="cccccccccc" /><path
       style="display:inline;opacity:1;fill:none;stroke:#ffffff;stroke-width:7;stroke-linecap:round;stroke-linejoin:round;stroke-opacity:1"
       d="m 248.13688,107.47034 c 0,0 -39.94771,-0.16014 -44.97249,-0.18545 -5.02478,-0.0253 -10.82983,6.8511 -10.84904,14.74356 -0.0192,7.89246 4.44332,15.19379 10.10722,15.39265 5.6639,0.19886 34.40164,0.46363 34.40164,0.46363 5.89235,0.13872 9.89761,6.63595 10.01449,14.27992 0.11688,7.64397 -3.30764,15.40678 -10.10721,15.39265 l -44.60159,-0.0927"
       id="path1947"
       sodipodi:nodetypes="czzzszsc" /><path
       style="opacity:1;fill:none;stroke:#ffffff;stroke-width:7;stroke-linecap:round;stroke-linejoin:round;stroke-opacity:1"
       d="m 289.11723,166.82539 0.17749,-59.42551 -28.24081,-0.0959 54.44694,0.21823"
       id="path1974"
       sodipodi:nodetypes="cccc" /><path
       style="opacity:1;fill:none;stroke:#ffffff;stroke-width:7;stroke-linecap:round;stroke-linejoin:round;stroke-opacity:1"
       d="m 330.98595,167.59114 -0.39341,-44.38936 c -0.0559,-6.31168 7.36859,-15.54361 14.88387,-15.53954 l 26.798,0.0145 c 6.93188,0.37121 13.72287,7.92124 13.72287,14.94888 l 0.32784,45.09663 -0.26227,-30.16116 -55.01134,-0.19671"
       id="path1976"
       sodipodi:nodetypes="cssccccc" /><path
       style="opacity:1;fill:none;stroke:#ffffff;stroke-width:7;stroke-linecap:round;stroke-linejoin:round;stroke-opacity:1"
       d="M 400.22548,107.53109 V 167.46 h 55.99485"
       id="path1980" /><path
       style="opacity:1;fill:none;stroke:#ffffff;stroke-width:7;stroke-linecap:round;stroke-linejoin:round;stroke-opacity:1"
       d="M 469.98955,107.26882 V 167.46 137.29884 h 37.92178 c 3.99033,0 15.62979,-5.33264 17.08956,-14.8183 1.22851,-7.98292 0.0656,-14.2282 0.0656,-14.2282"
       id="path1982"
       sodipodi:nodetypes="cccssc" /><path
       style="opacity:1;fill:none;stroke:#ffffff;stroke-width:7;stroke-linecap:round;stroke-linejoin:round;stroke-opacity:1"
       d="m 525.38997,168.02094 -0.18546,-14.37266 c -0.0708,-5.4861 -7.78905,-12.98174 -13.81629,-16.22718"
       id="path1984"
       sodipodi:nodetypes="csc" /></g><g
     inkscape:groupmode="layer"
     id="layer2"
     inkscape:label="drarw"
     style="display:none"></g>
</svg>
