<?xml version="1.0" encoding="UTF-8" standalone="no"?>
<!-- Generator: Adobe Illustrator 27.5.0, SVG Export Plug-In . SVG Version: 6.00 Build 0)  -->

<svg
   version="1.1"
   x="0px"
   y="0px"
   viewBox="0 0 500 372.8042"
   xml:space="preserve"
   id="svg233"
   sodipodi:docname="talking.svg"
   inkscape:export-filename="talking-chat.svg"
   inkscape:export-xdpi="96"
   inkscape:export-ydpi="96"
   inkscape:version="1.3 (0e150ed6c4, 2023-07-21)"
   width="500"
   height="372.8042"
   xmlns:inkscape="http://www.inkscape.org/namespaces/inkscape"
   xmlns:sodipodi="http://sodipodi.sourceforge.net/DTD/sodipodi-0.dtd"
   xmlns="http://www.w3.org/2000/svg"
   xmlns:svg="http://www.w3.org/2000/svg"><defs
   id="defs233" /><sodipodi:namedview
   id="namedview233"
   pagecolor="#606060"
   bordercolor="#000000"
   borderopacity="0.25"
   inkscape:showpageshadow="false"
   inkscape:pageopacity="0.0"
   inkscape:pagecheckerboard="true"
   inkscape:deskcolor="#323232"
   inkscape:zoom="0.87"
   inkscape:cx="208.04598"
   inkscape:cy="202.87356"
   inkscape:window-width="1216"
   inkscape:window-height="631"
   inkscape:window-x="-8"
   inkscape:window-y="-8"
   inkscape:window-maximized="1"
   inkscape:current-layer="Character_4"
   shape-rendering="auto"
   borderlayer="false"
   showborder="false" />&#10;<g
   id="Background_Complete"
   style="display:inline"
   transform="translate(0,-54.952)">&#10;	<g
   id="g8">&#10;		<rect
   y="382.39801"
   style="display:none;fill:rgb(59 59 59)"
   width="500"
   height="0.25"
   id="rect1"
   x="0" />&#10;		<rect
   x="416.77899"
   y="398.49399"
   style="display:none;fill:rgb(59 59 59)"
   width="33.122002"
   height="0.25"
   id="rect2" />&#10;		<rect
   x="322.52701"
   y="401.20801"
   style="fill:rgb(59 59 59)"
   width="8.6929998"
   height="0.25"
   id="rect3" />&#10;		<rect
   x="396.586"
   y="389.20801"
   style="fill:rgb(59 59 59)"
   width="19.191999"
   height="0.25"
   id="rect4" />&#10;		<rect
   x="52.459"
   y="390.888"
   style="display:none;fill:rgb(59 59 59)"
   width="43.193001"
   height="0.25"
   id="rect5" />&#10;		<rect
   x="104.556"
   y="390.888"
   style="fill:rgb(59 59 59)"
   width="6.3330002"
   height="0.25"
   id="rect6" />&#10;		<rect
   x="131.47099"
   y="395.11099"
   style="display:none;fill:rgb(59 59 59)"
   width="93.676003"
   height="0.25"
   id="rect7" />&#10;		<path
   style="display:none;fill:rgb(59 59 59)"
   d="M 237.014,337.8 H 43.915 c -3.147,0 -5.708,-2.561 -5.708,-5.708 V 60.66 c 0,-3.147 2.561,-5.708 5.708,-5.708 h 193.099 c 3.146,0 5.707,2.561 5.707,5.708 v 271.432 c 0,3.147 -2.561,5.708 -5.707,5.708 z M 43.915,55.203 c -3.01,0 -5.458,2.448 -5.458,5.458 v 271.432 c 0,3.01 2.448,5.458 5.458,5.458 h 193.099 c 3.009,0 5.457,-2.448 5.457,-5.458 V 60.66 c 0,-3.009 -2.448,-5.458 -5.457,-5.458 H 43.915 Z"
   id="path7" />&#10;		<path
   style="display:none;fill:rgb(59 59 59)"
   d="M 453.31,337.8 H 260.212 c -3.147,0 -5.707,-2.561 -5.707,-5.708 V 60.66 c 0,-3.147 2.561,-5.708 5.707,-5.708 H 453.31 c 3.148,0 5.708,2.561 5.708,5.708 v 271.432 c 0.001,3.147 -2.56,5.708 -5.708,5.708 z M 260.212,55.203 c -3.009,0 -5.457,2.448 -5.457,5.458 v 271.432 c 0,3.01 2.448,5.458 5.457,5.458 H 453.31 c 3.01,0 5.458,-2.448 5.458,-5.458 V 60.66 c 0,-3.009 -2.448,-5.458 -5.458,-5.458 H 260.212 Z"
   id="path8" />&#10;	</g>&#10;	<g
   id="g63">&#10;		&#10;			<rect
   x="85.392998"
   y="119.277"
   transform="rotate(180,88.20955,178.5253)"
   style="fill:rgb(49 49 49)"
   width="5.6329999"
   height="118.496"
   id="rect8" />&#10;		<g
   id="g14">&#10;			<rect
   x="88.644997"
   y="119.277"
   style="fill:rgb(49 49 49)"
   width="107.142"
   height="118.496"
   id="rect9" />&#10;			<rect
   x="88.083"
   y="119.277"
   style="fill:rgb(65 65 65)"
   width="111.125"
   height="118.496"
   id="rect10" />&#10;			<rect
   x="92.606003"
   y="123.057"
   style="fill:rgb(72 72 72)"
   width="101.901"
   height="109.272"
   id="rect11" />&#10;			<rect
   x="191.561"
   y="123.057"
   style="fill:rgb(49 49 49)"
   width="2.947"
   height="109.272"
   id="rect12" />&#10;			&#10;				<rect
   x="140.63699"
   y="153.343"
   transform="rotate(-90,142.11055,203.10845)"
   style="fill:rgb(49 49 49)"
   width="2.947"
   height="99.529999"
   id="rect13" />&#10;			<rect
   x="91.026001"
   y="196.688"
   style="fill:rgb(65 65 65)"
   width="103.482"
   height="4.947"
   id="rect14" />&#10;		</g>&#10;		<g
   id="g54">&#10;			&#10;				<rect
   x="273.703"
   y="193.87399"
   transform="rotate(180,347.4103,287.2096)"
   style="fill:rgb(65 65 65)"
   width="147.41499"
   height="186.67"
   id="rect15" />&#10;			<g
   id="g25">&#10;				&#10;					<rect
   x="278.91299"
   y="200.67799"
   transform="rotate(180,347.4103,220.6364)"
   style="fill:rgb(49 49 49)"
   width="136.994"
   height="39.917"
   id="rect16" />&#10;				&#10;					<rect
   x="408.125"
   y="207.14"
   transform="rotate(180,412.0162,223.86745)"
   style="fill:rgb(59 59 59)"
   width="7.7820001"
   height="33.455002"
   id="rect17" />&#10;				&#10;					<rect
   x="370.496"
   y="207.14"
   transform="rotate(180,374.38655,223.86745)"
   style="fill:rgb(59 59 59)"
   width="7.7820001"
   height="33.455002"
   id="rect18" />&#10;				&#10;					<rect
   x="324.879"
   y="206.722"
   transform="matrix(-0.9855,-0.1698,0.1698,-0.9855,614.8145,499.4897)"
   style="fill:rgb(59 59 59)"
   width="7.7820001"
   height="33.455002"
   id="rect19" />&#10;				&#10;					<rect
   x="398.48199"
   y="211.549"
   transform="rotate(180,402.3734,226.0718)"
   style="fill:rgb(59 59 59)"
   width="7.7820001"
   height="29.046"
   id="rect20" />&#10;				&#10;					<rect
   x="380.595"
   y="211.549"
   transform="rotate(180,384.48615,226.0718)"
   style="fill:rgb(59 59 59)"
   width="7.7820001"
   height="29.046"
   id="rect21" />&#10;				&#10;					<rect
   x="335.44601"
   y="211.549"
   transform="rotate(180,339.33665,226.0718)"
   style="fill:rgb(59 59 59)"
   width="7.7820001"
   height="29.046"
   id="rect22" />&#10;				&#10;					<rect
   x="357.03101"
   y="211.05"
   transform="matrix(-0.9762,-0.2169,0.2169,-0.9762,664.3188,524.0675)"
   style="fill:rgb(59 59 59)"
   width="7.7820001"
   height="29.046"
   id="rect23" />&#10;				&#10;					<rect
   x="391.75299"
   y="205.479"
   transform="rotate(180,393.6986,223.03695)"
   style="fill:rgb(59 59 59)"
   width="3.891"
   height="35.116001"
   id="rect24" />&#10;				&#10;					<rect
   x="345.465"
   y="205.479"
   transform="rotate(180,347.41035,223.03695)"
   style="fill:rgb(59 59 59)"
   width="3.891"
   height="35.116001"
   id="rect25" />&#10;			</g>&#10;			<g
   id="g39">&#10;				<rect
   x="278.91299"
   y="246.91499"
   style="fill:rgb(49 49 49)"
   width="136.994"
   height="39.917"
   id="rect26" />&#10;				<rect
   x="278.91299"
   y="253.37801"
   style="fill:rgb(59 59 59)"
   width="7.7820001"
   height="33.455002"
   id="rect27" />&#10;				<rect
   x="316.543"
   y="253.37801"
   style="fill:rgb(59 59 59)"
   width="7.7820001"
   height="33.455002"
   id="rect28" />&#10;				&#10;					<rect
   x="362.159"
   y="252.96001"
   transform="matrix(0.9855,-0.1698,0.1698,0.9855,-40.4854,66.0879)"
   style="fill:rgb(59 59 59)"
   width="7.7820001"
   height="33.455002"
   id="rect29" />&#10;				<rect
   x="288.556"
   y="257.78601"
   style="fill:rgb(59 59 59)"
   width="7.7820001"
   height="29.046"
   id="rect30" />&#10;				<rect
   x="306.44299"
   y="257.78601"
   style="fill:rgb(59 59 59)"
   width="7.7820001"
   height="29.046"
   id="rect31" />&#10;				<rect
   x="351.59299"
   y="257.78601"
   style="fill:rgb(59 59 59)"
   width="7.7820001"
   height="29.046"
   id="rect32" />&#10;				&#10;					<rect
   x="330.00699"
   y="257.28799"
   transform="matrix(0.9762,-0.2169,0.2169,0.9762,-51.0082,78.8957)"
   style="fill:rgb(59 59 59)"
   width="7.7820001"
   height="29.046"
   id="rect33" />&#10;				<rect
   x="299.177"
   y="251.717"
   style="fill:rgb(59 59 59)"
   width="3.891"
   height="35.116001"
   id="rect34" />&#10;				<rect
   x="345.465"
   y="251.717"
   style="fill:rgb(59 59 59)"
   width="3.891"
   height="35.116001"
   id="rect35" />&#10;				&#10;					<rect
   x="408.125"
   y="253.37801"
   transform="rotate(180,412.0162,270.10495)"
   style="fill:rgb(59 59 59)"
   width="7.7820001"
   height="33.455002"
   id="rect36" />&#10;				&#10;					<rect
   x="398.48199"
   y="257.78601"
   transform="rotate(180,402.3734,272.30935)"
   style="fill:rgb(59 59 59)"
   width="7.7820001"
   height="29.046"
   id="rect37" />&#10;				&#10;					<rect
   x="380.595"
   y="257.78601"
   transform="rotate(180,384.48615,272.30935)"
   style="fill:rgb(59 59 59)"
   width="7.7820001"
   height="29.046"
   id="rect38" />&#10;				&#10;					<rect
   x="391.75299"
   y="251.717"
   transform="rotate(180,393.6986,269.2745)"
   style="fill:rgb(59 59 59)"
   width="3.891"
   height="35.116001"
   id="rect39" />&#10;			</g>&#10;			<g
   id="g53">&#10;				&#10;					<rect
   x="278.91299"
   y="293.15302"
   transform="rotate(180,347.4103,313.1116)"
   style="fill:rgb(49 49 49)"
   width="136.994"
   height="39.917"
   id="rect40" />&#10;				<g
   id="g52">&#10;					&#10;						<rect
   x="329.495"
   y="299.61499"
   transform="rotate(180,333.38635,316.34265)"
   style="fill:rgb(59 59 59)"
   width="7.7820001"
   height="33.455002"
   id="rect41" />&#10;					&#10;						<rect
   x="283.879"
   y="299.19699"
   transform="matrix(-0.9855,-0.1698,0.1698,-0.9855,517.704,676.1334)"
   style="fill:rgb(59 59 59)"
   width="7.7820001"
   height="33.455002"
   id="rect42" />&#10;					&#10;						<rect
   x="357.48199"
   y="304.02399"
   transform="rotate(180,361.37315,318.547)"
   style="fill:rgb(59 59 59)"
   width="7.7820001"
   height="29.046"
   id="rect43" />&#10;					&#10;						<rect
   x="339.595"
   y="304.02399"
   transform="rotate(180,343.4858,318.547)"
   style="fill:rgb(59 59 59)"
   width="7.7820001"
   height="29.046"
   id="rect44" />&#10;					&#10;						<rect
   x="294.44501"
   y="304.02399"
   transform="rotate(180,298.3365,318.547)"
   style="fill:rgb(59 59 59)"
   width="7.7820001"
   height="29.046"
   id="rect45" />&#10;					&#10;						<rect
   x="316.03101"
   y="303.526"
   transform="matrix(-0.9762,-0.2169,0.2169,-0.9762,563.236,697.9215)"
   style="fill:rgb(59 59 59)"
   width="7.7820001"
   height="29.046"
   id="rect46" />&#10;					&#10;						<rect
   x="350.75299"
   y="297.95401"
   transform="rotate(180,352.6983,315.51215)"
   style="fill:rgb(59 59 59)"
   width="3.891"
   height="35.116001"
   id="rect47" />&#10;					&#10;						<rect
   x="304.465"
   y="297.95401"
   transform="rotate(180,306.4101,315.51215)"
   style="fill:rgb(59 59 59)"
   width="3.891"
   height="35.116001"
   id="rect48" />&#10;					&#10;						<rect
   x="373.41"
   y="299.19699"
   transform="matrix(-0.9855,-0.1698,0.1698,-0.9855,695.4649,691.3397)"
   style="fill:rgb(59 59 59)"
   width="7.7820001"
   height="33.455002"
   id="rect49" />&#10;					&#10;						<rect
   x="383.97699"
   y="304.02399"
   transform="rotate(180,387.86765,318.547)"
   style="fill:rgb(59 59 59)"
   width="7.7820001"
   height="29.046"
   id="rect50" />&#10;					&#10;						<rect
   x="405.56201"
   y="303.526"
   transform="matrix(-0.9762,-0.2169,0.2169,-0.9762,740.1666,717.3424)"
   style="fill:rgb(59 59 59)"
   width="7.7820001"
   height="29.046"
   id="rect51" />&#10;					&#10;						<rect
   x="393.996"
   y="297.95401"
   transform="rotate(180,395.9413,315.51215)"
   style="fill:rgb(59 59 59)"
   width="3.891"
   height="35.116001"
   id="rect52" />&#10;				</g>&#10;			</g>&#10;		</g>&#10;		<g
   id="g60">&#10;			<path
   style="fill:rgb(49 49 49)"
   d="M 176.405,265.779 H 90.838 c -9.281,0 -16.805,7.524 -16.805,16.805 V 349.4 H 193.21 v -66.816 c 0,-9.281 -7.524,-16.805 -16.805,-16.805 z"
   id="path54" />&#10;			<path
   style="fill:rgb(49 49 49)"
   d="m 218.508,315.302 h -15.312 c -5.515,0 -9.986,4.471 -9.986,9.986 v 55.257 h 35.285 v -55.257 c -0.001,-5.516 -4.472,-9.986 -9.987,-9.986 z"
   id="path55" />&#10;			<path
   style="fill:rgb(59 59 59)"
   d="m 218.508,315.302 h -0.324 c -5.515,0 -9.986,4.471 -9.986,9.986 v 55.257 h 20.296 v -55.257 c 0,-5.516 -4.471,-9.986 -9.986,-9.986 z"
   id="path56" />&#10;			<rect
   x="86.496002"
   y="355.16199"
   style="fill:rgb(49 49 49)"
   width="117.429"
   height="25.382999"
   id="rect56" />&#10;			<path
   style="fill:rgb(72 72 72)"
   d="M 204.092,331.948 H 90.843 c -5.607,0 -10.153,4.546 -10.153,10.153 v 6.324 c 0,5.607 4.546,10.153 10.153,10.153 h 113.248 c 5.607,0 10.153,-4.546 10.153,-10.153 v -6.324 c 0,-5.607 -4.545,-10.153 -10.152,-10.153 z"
   id="path57" />&#10;			<path
   style="fill:rgb(49 49 49);enable-background:new"
   d="M 105.075,331.948 H 91.029 c -5.607,0 -10.153,4.546 -10.153,10.153 v 6.324 c 0,5.607 4.546,10.153 10.153,10.153 h 14.047 c 5.607,0 10.153,-4.546 10.153,-10.153 v -6.324 c -0.001,-5.607 -4.547,-10.153 -10.154,-10.153 z"
   id="path58" />&#10;			<path
   style="fill:rgb(49 49 49)"
   d="M 89.514,315.302 H 74.202 c -5.515,0 -9.986,4.471 -9.986,9.986 v 55.257 H 99.5 v -55.257 c 0,-5.516 -4.471,-9.986 -9.986,-9.986 z"
   id="path59" />&#10;			<path
   style="fill:rgb(65 65 65)"
   d="m 89.514,315.302 h -0.323 c -5.515,0 -9.986,4.471 -9.986,9.986 v 55.257 H 99.5 v -55.257 c 0,-5.516 -4.471,-9.986 -9.986,-9.986 z"
   id="path60" />&#10;		</g>&#10;		<g
   id="g62">&#10;			<circle
   style="fill:rgb(49 49 49)"
   cx="343.68399"
   cy="129.166"
   r="20.357"
   id="circle60" />&#10;			&#10;				<circle
   transform="matrix(0.1602,-0.9871,0.9871,0.1602,161.1343,447.722)"
   style="fill:rgb(65 65 65)"
   cx="343.68399"
   cy="129.166"
   id="ellipse60"
   r="17.308001" />&#10;			<g
   id="g61">&#10;				<polyline
   style="fill:rgb(65 65 65)"
   points="342.868,117.292 342.868,129.392 334.849,124.854     "
   id="polyline60" />&#10;				<path
   style="fill:rgb(49 49 49)"
   d="m 342.868,130.256 c -0.147,0 -0.294,-0.037 -0.426,-0.112 l -8.018,-4.537 c -0.415,-0.235 -0.561,-0.762 -0.326,-1.178 0.234,-0.415 0.761,-0.562 1.178,-0.326 l 6.728,3.807 v -10.618 c 0,-0.478 0.387,-0.864 0.864,-0.864 0.478,0 0.864,0.387 0.864,0.864 v 12.1 c 0,0.308 -0.163,0.592 -0.429,0.747 -0.135,0.078 -0.285,0.117 -0.435,0.117 z"
   id="path61" />&#10;			</g>&#10;		</g>&#10;	</g>&#10;</g>&#10;<g
   id="Background_Simple"
   style="display:none"
   transform="translate(0,-54.952)">&#10;	<g
   style="display:inline"
   id="g64">&#10;		<path
   style="fill:rgb(99 89 133)"
   d="m 244.692,103.121 c 76.797,34.553 7.082,96.135 51.424,129.674 44.342,33.539 164.905,-5.234 118.945,81.858 C 361.075,416.955 124.664,402.749 73.691,277.269 22.719,151.788 167.894,68.568 244.692,103.121 Z"
   id="path63" />&#10;		<path
   style="opacity:0.9;fill:rgb(72 72 72)"
   d="m 244.692,103.121 c 76.797,34.553 7.082,96.135 51.424,129.674 44.342,33.539 164.905,-5.234 118.945,81.858 C 361.075,416.955 124.664,402.749 73.691,277.269 22.719,151.788 167.894,68.568 244.692,103.121 Z"
   id="path64" />&#10;	</g>&#10;</g>&#10;<g
   id="Shadow_1_"
   transform="translate(0,-54.952)">&#10;	<ellipse
   id="_x3C_Path_x3E__359_"
   style="fill:rgb(72 72 72)"
   cx="250"
   cy="413.79599"
   rx="193.88901"
   ry="13.766" />&#10;</g>&#10;<g
   id="Speech_bubble_2"
   transform="translate(0,-54.952)">&#10;	<g
   id="g66">&#10;		<path
   style="fill:rgb(99 89 133)"
   d="m 388.66,205.821 h -26.953 c -5.118,0 -9.268,4.149 -9.268,9.268 v 11.185 c 0,5.118 4.149,9.268 9.268,9.268 h 11.54 l 3.107,9.785 3.127,-9.785 h 9.179 c 5.118,0 9.267,-4.149 9.267,-9.268 v -11.185 c 0,-5.119 -4.149,-9.268 -9.267,-9.268 z"
   id="path65" />&#10;		<path
   style="fill:rgb(72 72 72)"
   d="m 364.681,220.041 c 0,1.034 -0.838,1.872 -1.872,1.872 -1.034,0 -1.872,-0.838 -1.872,-1.872 0,-1.034 0.838,-1.872 1.872,-1.872 1.034,0 1.872,0.838 1.872,1.872 z m 6.378,-1.872 c -1.034,0 -1.872,0.838 -1.872,1.872 0,1.034 0.838,1.872 1.872,1.872 1.034,0 1.872,-0.838 1.872,-1.872 0,-1.034 -0.839,-1.872 -1.872,-1.872 z m 8.249,0 c -1.034,0 -1.872,0.838 -1.872,1.872 0,1.034 0.838,1.872 1.872,1.872 1.034,0 1.872,-0.838 1.872,-1.872 0,-1.034 -0.838,-1.872 -1.872,-1.872 z m 8.25,0 c -1.034,0 -1.872,0.838 -1.872,1.872 0,1.034 0.838,1.872 1.872,1.872 1.034,0 1.872,-0.838 1.872,-1.872 0,-1.034 -0.839,-1.872 -1.872,-1.872 z"
   id="path66" />&#10;	</g>&#10;</g>&#10;<g
   id="Speech_bubble_1"
   transform="translate(0,-54.952)">&#10;	<g
   id="g68">&#10;		<path
   style="fill:rgb(99 89 133)"
   d="M 111.5,238.818 H 84.547 c -5.118,0 -9.268,4.149 -9.268,9.268 v 11.185 c 0,5.118 4.149,9.268 9.268,9.268 h 11.541 l 3.107,9.785 3.127,-9.785 h 9.179 c 5.118,0 9.267,-4.149 9.267,-9.268 v -11.185 c 0,-5.118 -4.15,-9.268 -9.268,-9.268 z"
   id="path67" />&#10;		<path
   style="fill:rgb(72 72 72)"
   d="m 87.521,253.039 c 0,1.034 -0.838,1.872 -1.872,1.872 -1.034,0 -1.872,-0.838 -1.872,-1.872 0,-1.034 0.838,-1.872 1.872,-1.872 1.034,0 1.872,0.838 1.872,1.872 z m 6.378,-1.872 c -1.034,0 -1.872,0.838 -1.872,1.872 0,1.034 0.838,1.872 1.872,1.872 1.034,0 1.872,-0.838 1.872,-1.872 0,-1.034 -0.838,-1.872 -1.872,-1.872 z m 8.249,0 c -1.034,0 -1.872,0.838 -1.872,1.872 0,1.034 0.838,1.872 1.872,1.872 1.034,0 1.872,-0.838 1.872,-1.872 0,-1.034 -0.838,-1.872 -1.872,-1.872 z m 8.25,0 c -1.034,0 -1.872,0.838 -1.872,1.872 0,1.034 0.838,1.872 1.872,1.872 1.034,0 1.872,-0.838 1.872,-1.872 0,-1.034 -0.838,-1.872 -1.872,-1.872 z"
   id="path68" />&#10;	</g>&#10;</g>&#10;<g
   id="Character_4"
   transform="translate(0,-54.952)">&#10;	<g
   id="g115">&#10;		<g
   id="g71">&#10;			<path
   style="fill:#263238"
   d="M 412.981,415.197 H 286.08 c -23.711,0 -25.232,-27.917 -5.745,-41.058 3.276,-2.225 7.153,-4.018 11.611,-5.191 38.59,-10.147 92.817,-78.38 130.956,-49.825 0.038,0.019 0.066,0.047 0.103,0.075 38.149,28.752 11.556,95.999 -10.024,95.999 z"
   id="path69" />&#10;			<path
   style="opacity:0.5;fill:rgb(72 72 72)"
   d="M 412.981,415.197 H 286.08 c -23.711,0 -25.232,-27.917 -5.745,-41.058 3.276,-2.225 7.153,-4.018 11.611,-5.191 38.59,-10.147 92.817,-78.38 130.956,-49.825 0.038,0.019 0.066,0.047 0.103,0.075 38.149,28.752 11.556,95.999 -10.024,95.999 z"
   id="path70" />&#10;			<path
   style="opacity:0.2;enable-background:new"
   d="m 422.903,319.123 c -3.201,-0.216 -7.087,0.685 -11.264,4.186 -10.851,9.105 5.652,52.909 -20.299,71.131 -14.479,10.166 -76.946,14.652 -97.797,2.18 -15.397,-9.21 -15.591,-14.981 -13.207,-22.482 3.276,-2.225 7.153,-4.018 11.611,-5.191 38.589,-10.146 92.817,-78.379 130.956,-49.824 z"
   id="path71" />&#10;		</g>&#10;		<g
   id="_x3C_Group_x3E__9_">&#10;			<g
   id="g72">&#10;				<path
   style="fill:#e4897b"
   d="m 324.219,310.858 -7.564,-5.333 5.659,-5.784 c 0,0 5.811,2.984 5.256,8.345 z"
   id="path72" />&#10;				<polygon
   style="fill:#e4897b"
   points="313.682,299.647 318.932,296.345 322.313,299.742 316.655,305.526 "
   id="polygon72" />&#10;			</g>&#10;			<path
   style="fill:#263238"
   d="m 361.464,297.087 c -7.179,2.116 -10.707,14.726 -16.626,26.633 l -17.23,-17.125 -5.476,4.864 c 0,0 15.783,25.068 23.231,25.075 9.294,0.009 18.95,-25.835 18.95,-25.835 z"
   id="path73" />&#10;			<path
   style="opacity:0.1;fill:rgb(72 72 72)"
   d="m 364.31,310.701 c 0,0 -1.53,4.093 -3.961,9.021 -2.347,4.778 -5.548,10.344 -9.011,13.714 -1.943,1.896 -3.971,3.098 -5.979,3.098 -7.444,-0.009 -23.223,-25.072 -23.223,-25.072 l 5.473,-4.862 17.234,17.122 c 5.914,-11.912 9.443,-24.518 16.624,-26.63 z"
   id="path74" />&#10;			<path
   style="opacity:0.2"
   d="m 360.349,319.722 c -2.347,4.778 -5.548,10.344 -9.011,13.714 0.375,-11.424 5.979,-22.575 5.979,-22.575 1.642,2.853 2.6,5.876 3.032,8.861 z"
   id="path75" />&#10;			<g
   id="g77">&#10;				<path
   style="fill:rgb(99 89 133)"
   d="m 354.597,366.75 c 0,0 -60.851,-8.738 -64.063,4.614 -3.397,14.118 45.463,23.64 74.665,24.635 29.202,0.995 37.579,-5.957 32.887,-42.041 H 358.11 Z"
   id="path76" />&#10;				<path
   style="opacity:0.6;fill:rgb(72 72 72);enable-background:new"
   d="m 354.597,366.75 c 0,0 -60.851,-8.738 -64.063,4.614 -3.397,14.118 45.463,23.64 74.665,24.635 29.202,0.995 37.579,-5.957 32.887,-42.041 H 358.11 Z"
   id="path77" />&#10;			</g>&#10;			<polygon
   style="fill:#e4897b"
   points="301.838,394.607 301.108,388.162 306.771,387.405 320.602,385.556 320.715,394.593 307.962,394.602 "
   id="polygon77" />&#10;			<path
   style="fill:#263238"
   d="m 302.49,387.352 1.552,7.356 c 0.086,0.41 -0.183,0.811 -0.596,0.885 l -3.666,0.659 c 0,0 -4.869,1.239 -6.236,0.365 -3.995,-2.553 -7.844,-18.736 -6.217,-19.934 0.596,-0.439 1.628,0.225 2.143,0.753 1.637,1.677 5.135,6.346 6.518,7.728 1.617,1.616 4.486,1.665 5.746,1.599 0.363,-0.018 0.681,0.233 0.756,0.589 z"
   id="path78" />&#10;			<polygon
   style="opacity:0.2;enable-background:new"
   points="320.715,394.593 307.962,394.602 306.771,387.405 320.602,385.556 "
   id="polygon78" />&#10;			<g
   id="g83">&#10;				<polygon
   style="fill:#e4897b"
   points="357.258,389.168 355.912,395.513 350.301,394.44 336.595,391.821 339.345,383.212 351.446,387.236 "
   id="polygon79" />&#10;				<path
   style="fill:#263238"
   d="m 354.346,395.844 0.853,-7.469 c 0.048,-0.417 0.43,-0.711 0.845,-0.651 l 3.687,0.534 c 0,0 5.011,0.364 6.032,1.626 2.983,3.685 1.518,20.255 -0.404,20.878 -0.704,0.228 -1.473,-0.729 -1.795,-1.392 -1.023,-2.108 -2.865,-7.644 -3.74,-9.393 -1.023,-2.044 -3.73,-2.998 -4.945,-3.334 -0.352,-0.098 -0.574,-0.437 -0.533,-0.799 z"
   id="path79" />&#10;				<polygon
   style="opacity:0.2;enable-background:new"
   points="339.345,383.212 351.446,387.236 350.301,394.44 336.595,391.821 "
   id="polygon80" />&#10;				<g
   id="g82">&#10;					<polygon
   style="fill:rgb(99 89 133)"
   points="348.196,395.565 344.746,395.887 346.807,383.953 350.772,386.038 "
   id="polygon81" />&#10;					<polygon
   style="opacity:0.6;fill:rgb(72 72 72);enable-background:new"
   points="348.196,395.565 344.746,395.887 346.807,383.953 350.772,386.038 "
   id="polygon82" />&#10;				</g>&#10;				<path
   style="fill:rgb(99 89 133)"
   d="m 359.749,399.887 c 0.092,0.541 0.011,1.097 -0.233,1.589 -0.196,0.301 -0.538,0.473 -0.897,0.451 -0.217,0.012 -0.423,-0.092 -0.542,-0.274 -0.513,-0.883 0.698,-3.595 0.851,-3.897 0.024,-0.066 0.091,-0.107 0.161,-0.097 0.078,0.008 0.143,0.063 0.164,0.139 0.236,0.677 0.402,1.377 0.496,2.089 z m -1.438,1.304 c 0.008,0.087 0.033,0.172 0.075,0.25 0.042,0.077 0.127,0.12 0.213,0.108 0.248,0.03 0.49,-0.088 0.62,-0.301 0.294,-0.949 0.241,-1.972 -0.15,-2.885 -0.422,0.888 -0.679,1.847 -0.758,2.828 z"
   id="path82" />&#10;				<path
   style="fill:rgb(99 89 133)"
   d="m 359.284,397.824 -0.04,0.08 c -0.337,0.867 -1.83,2.589 -2.684,2.47 -0.288,-0.05 -0.504,-0.293 -0.519,-0.585 -0.067,-0.285 -0.016,-0.585 0.141,-0.832 0.622,-0.991 2.769,-1.313 2.889,-1.308 0.069,-0.012 0.137,0.023 0.169,0.085 0.023,0.025 0.038,0.056 0.044,0.09 z m -2.882,1.824 0.013,0.085 c 0.053,0.249 0.159,0.259 0.208,0.272 0.498,0.073 1.642,-1.045 2.144,-1.907 -0.624,0.131 -1.863,0.466 -2.257,1.092 -0.087,0.136 -0.125,0.297 -0.108,0.458 z"
   id="path83" />&#10;			</g>&#10;			<path
   style="fill:rgb(99 89 133)"
   d="m 309.12,386.468 c 0,0 56.612,-21.988 73.949,-18.314 17.337,3.673 17.418,12.747 8.63,21.206 -8.788,8.458 -21.92,5.199 -21.92,5.199 0,0 10.318,-6.184 9.599,-10 -0.72,-3.817 -7.279,4.912 -7.279,4.912 0,0 -34.214,8.367 -62.464,6.161 z"
   id="path84" />&#10;			<g
   id="g86">&#10;				<path
   style="fill:rgb(99 89 133)"
   d="m 296.381,385.283 c -0.331,-0.438 -0.515,-0.969 -0.526,-1.517 0.035,-0.357 0.26,-0.668 0.588,-0.814 0.187,-0.111 0.418,-0.113 0.607,-0.007 0.863,0.547 1.037,3.512 1.041,3.851 0.009,0.07 -0.031,0.137 -0.098,0.161 -0.073,0.029 -0.156,0.01 -0.21,-0.047 -0.52,-0.494 -0.991,-1.039 -1.402,-1.627 z m 0.675,-1.82 c -0.047,-0.074 -0.109,-0.138 -0.181,-0.187 -0.072,-0.049 -0.168,-0.048 -0.239,0.003 -0.233,0.088 -0.395,0.304 -0.412,0.552 0.176,0.978 0.695,1.861 1.463,2.491 -0.035,-0.983 -0.249,-1.952 -0.631,-2.859 z"
   id="path85" />&#10;				<path
   style="fill:rgb(99 89 133)"
   d="m 297.744,386.899 -0.001,-0.09 c -0.101,-0.925 0.431,-3.141 1.244,-3.43 0.279,-0.088 0.582,0.028 0.73,0.28 0.191,0.222 0.284,0.512 0.259,0.803 -0.096,1.166 -1.853,2.441 -1.962,2.492 -0.056,0.042 -0.133,0.043 -0.189,0.002 -0.032,-0.009 -0.06,-0.03 -0.081,-0.057 z m 1.718,-2.947 -0.051,-0.069 c -0.161,-0.197 -0.261,-0.156 -0.31,-0.146 -0.476,0.165 -0.976,1.684 -1.024,2.68 0.493,-0.404 1.439,-1.272 1.5,-2.009 0.014,-0.16 -0.027,-0.321 -0.115,-0.456 z"
   id="path86" />&#10;			</g>&#10;			<path
   style="opacity:0.7;fill:rgb(72 72 72);enable-background:new"
   d="m 309.12,386.468 c 0,0 56.612,-21.988 73.949,-18.314 17.337,3.673 17.418,12.747 8.63,21.206 -8.788,8.458 -21.92,5.199 -21.92,5.199 0,0 10.318,-6.184 9.599,-10 -0.72,-3.817 -7.279,4.912 -7.279,4.912 0,0 -34.214,8.367 -62.464,6.161 z"
   id="path87" />&#10;			<g
   id="g88">&#10;				<polygon
   style="fill:rgb(99 89 133)"
   points="308.432,386.297 311.613,384.84 313.441,396.754 309.02,396.029 "
   id="polygon87" />&#10;				<polygon
   style="opacity:0.6;fill:rgb(72 72 72);enable-background:new"
   points="308.432,386.297 311.613,384.84 313.441,396.754 309.02,396.029 "
   id="polygon88" />&#10;			</g>&#10;			<path
   style="fill:#263238"
   d="m 402.111,299.018 c -6.114,33.978 -3.891,55.993 -3.891,55.993 0,0 -28.429,-0.39 -40.11,-1.052 -6.233,-41.208 3.354,-56.871 3.354,-56.871 0,0 4.267,-0.911 9.243,-1.268 0.655,-0.051 1.322,-0.083 2,-0.105 4.384,-0.151 11.55,0.412 16.492,0.928 1.039,0.109 2.091,0.247 3.113,0.398 5.206,0.774 9.799,1.977 9.799,1.977 z"
   id="path88" />&#10;			<path
   style="opacity:0.1;fill:rgb(72 72 72)"
   d="m 402.111,299.014 c -0.76,4.215 -1.389,8.251 -1.915,12.071 -0.817,6.036 -1.37,11.565 -1.727,16.502 -0.112,1.493 -0.206,2.938 -0.282,4.318 -0.291,5.069 -0.366,9.396 -0.357,12.897 0.028,6.58 0.394,10.204 0.394,10.204 0,0 -28.433,-0.385 -40.119,-1.051 -6.233,-41.208 3.361,-56.866 3.361,-56.866 0,0 4.261,-0.911 9.246,-1.267 0.648,-0.056 1.314,-0.084 2,-0.113 4.384,-0.15 11.546,0.413 16.493,0.929 1.032,0.113 2.084,0.253 3.107,0.404 5.209,0.771 9.799,1.972 9.799,1.972 z"
   id="path89" />&#10;			<path
   style="opacity:0.2"
   d="m 376.719,336.533 c 11.677,-1.577 18.858,-3.736 21.468,-4.628 -0.291,5.069 -0.366,9.396 -0.357,12.897 -13.572,1.252 -19.109,-1.359 -19.109,-1.359 z"
   id="path90" />&#10;			<path
   style="opacity:0.2"
   d="m 400.196,311.086 c -0.817,6.036 -1.37,11.565 -1.727,16.502 -3.886,-7.923 -1.014,-17.422 -1.014,-17.422 z"
   id="path91" />&#10;			<g
   id="g96">&#10;				<path
   style="fill:#263238"
   d="m 378.263,350.492 h -20.681 c -0.797,0 -1.499,-0.649 -1.568,-1.449 l -2.879,-27.448 c -0.069,-0.801 0.521,-1.449 1.318,-1.449 h 20.681 c 0.797,0 1.499,0.649 1.568,1.449 l 2.879,27.448 c 0.068,0.8 -0.521,1.449 -1.318,1.449 z"
   id="path92" />&#10;				<path
   style="opacity:0.6;fill:rgb(72 72 72)"
   d="m 378.263,350.492 h -20.681 c -0.797,0 -1.499,-0.649 -1.568,-1.449 l -2.879,-27.448 c -0.069,-0.801 0.521,-1.449 1.318,-1.449 h 20.681 c 0.797,0 1.499,0.649 1.568,1.449 l 2.879,27.448 c 0.068,0.8 -0.521,1.449 -1.318,1.449 z"
   id="path93" />&#10;				<path
   style="opacity:0.2;fill:rgb(72 72 72)"
   d="m 377.398,350.492 h -19.816 c -0.797,0 -1.499,-0.649 -1.568,-1.449 l -2.879,-27.448 c -0.069,-0.801 0.521,-1.449 1.318,-1.449 h 19.816 c 0.797,0 1.499,0.649 1.568,1.449 l 2.879,27.448 c 0.069,0.8 -0.521,1.449 -1.318,1.449 z"
   id="path94" />&#10;				<path
   style="fill:#263238"
   d="m 365.34,333.074 c -1.234,0 -2.147,1.005 -2.04,2.244 0.107,1.24 1.194,2.244 2.428,2.244 1.234,0 2.147,-1.005 2.04,-2.244 -1.234,0 -2.321,-1.005 -2.428,-2.244 z"
   id="path95" />&#10;				<path
   style="opacity:0.3"
   d="m 369.815,322.324 h -10.923 c -0.534,0 -1.042,-0.327 -1.282,-0.825 l -0.654,-1.354 h 14.419 l -0.42,1.354 c -0.154,0.498 -0.606,0.825 -1.14,0.825 z"
   id="path96" />&#10;			</g>&#10;			<path
   style="fill:#e4897b"
   d="m 376.238,335.651 -4.777,-0.392 0.199,6.359 4.023,2.105 9.216,-0.848 0.752,-4.283 c -3.055,-4.439 -9.413,-2.941 -9.413,-2.941 z"
   id="path97" />&#10;			<path
   style="fill:#263238"
   d="m 402.111,299.018 c 4.905,1.485 11.868,29.987 10.754,36.3 -1.114,6.313 -13.214,8.988 -28.607,8.653 v -7.437 l 17.853,-5.21 -3.008,-11.039 c 0,0 -2.484,-8.085 -1.37,-13.748 0.934,-4.751 4.378,-7.519 4.378,-7.519 z"
   id="path98" />&#10;			<path
   style="opacity:0.1;fill:rgb(72 72 72)"
   d="m 402.111,299.018 c 4.905,1.485 11.868,29.987 10.754,36.3 -1.114,6.313 -13.214,8.988 -28.607,8.653 v -7.437 l 17.853,-5.21 -3.008,-11.039 c 0,0 -2.484,-8.085 -1.37,-13.748 0.934,-4.751 4.378,-7.519 4.378,-7.519 z"
   id="path99" />&#10;			<g
   id="g101">&#10;				<path
   style="fill:#e4897b"
   d="m 386.82,296.313 c -2.488,2.6 -6.402,4.778 -12.672,4.543 -4.806,-0.188 -5.473,-3.21 -4.637,-4.862 2.919,-0.601 4.243,-1.877 4.646,-3.492 0.441,-1.718 -0.16,-3.802 -1.004,-5.82 l 8.11,-6.834 1.371,-1.155 c -0.028,0.385 -0.056,0.798 -0.075,1.23 -0.075,1.417 -0.085,3.06 0.019,4.759 0.262,4.468 1.322,9.34 4.242,11.631 z"
   id="path100" />&#10;				<path
   style="opacity:0.2"
   d="m 382.577,284.682 c -1.511,3.088 -4.159,6.815 -8.42,7.819 0.441,-1.718 -0.16,-3.802 -1.004,-5.82 l 8.11,-6.834 c 0.432,0.009 0.864,0.037 1.295,0.075 -0.075,1.419 -0.085,3.061 0.019,4.76 z"
   id="path101" />&#10;			</g>&#10;			<g
   id="g114">&#10;				<path
   style="fill:#263238"
   d="m 363.953,266.274 c -1.194,2.72 -1.34,8.559 2.8,7.108 4.141,-1.451 -0.747,-11.782 -2.8,-7.108 z"
   id="path102" />&#10;				<path
   style="fill:#e4897b"
   d="m 383.833,272.297 c -0.358,7.287 -0.196,11.573 -3.835,15.322 -5.474,5.639 -14.522,2.324 -16.353,-4.944 -1.648,-6.542 -0.786,-17.359 6.32,-20.276 7.001,-2.873 14.226,2.612 13.868,9.898 z"
   id="path103" />&#10;				<path
   style="fill:#263238"
   d="m 372.79,274.361 c 0.007,0.593 -0.302,1.075 -0.69,1.076 -0.388,10e-4 -0.709,-0.479 -0.717,-1.072 -0.007,-0.593 0.302,-1.075 0.69,-1.076 0.389,-10e-4 0.71,0.479 0.717,1.072 z"
   id="path104" />&#10;				<path
   style="fill:#263238"
   d="m 366.074,274.378 c 0.007,0.593 -0.302,1.075 -0.69,1.076 -0.388,10e-4 -0.709,-0.479 -0.716,-1.073 -0.007,-0.593 0.302,-1.075 0.69,-1.076 0.388,-0.001 0.709,0.479 0.716,1.073 z"
   id="path105" />&#10;				<path
   style="fill:#de5753"
   d="m 368.213,274.667 c 0,0 -1.344,3.298 -2.825,4.901 1.049,0.924 2.83,0.47 2.83,0.47 z"
   id="path106" />&#10;				<path
   style="fill:#263238"
   d="m 374.834,272.19 c -0.12,0.017 -0.247,-0.03 -0.327,-0.134 -0.954,-1.237 -2.237,-1.159 -2.25,-1.158 -0.192,0.014 -0.361,-0.13 -0.377,-0.322 -0.016,-0.191 0.128,-0.358 0.319,-0.373 0.068,-0.005 1.675,-0.103 2.858,1.431 0.118,0.153 0.091,0.372 -0.061,0.488 -0.049,0.038 -0.105,0.061 -0.162,0.068 z"
   id="path107" />&#10;				<path
   style="fill:#263238"
   d="m 363.152,272.078 c -0.065,0.009 -0.134,0 -0.199,-0.031 -0.174,-0.084 -0.249,-0.292 -0.167,-0.465 0.823,-1.738 2.413,-1.949 2.483,-1.967 0.191,-0.024 0.367,0.111 0.393,0.301 0.026,0.19 -0.105,0.364 -0.295,0.39 -0.067,0.006 -1.289,0.184 -1.95,1.579 -0.051,0.109 -0.153,0.178 -0.265,0.193 z"
   id="path108" />&#10;				<path
   style="fill:#263238"
   d="m 372.388,266.457 c 0,0 2.01,-1.433 2.922,0.111 0.912,1.544 0.858,5.678 0.858,5.678 l 0.405,-0.73 c 0,0 2.582,9.201 6.335,6.882 3.753,-2.319 9.266,-11.657 0.501,-16.42 0,0 -0.931,-2.223 -6.723,-3.315 -5.792,-1.093 -12.791,2.479 -13.989,6.306 -1.199,3.827 0.483,5.959 0.483,5.959 0.315,-1.387 1.113,-2.269 1.113,-2.269 0.133,1.239 1.444,1.761 1.444,1.761 -0.031,-1.51 0.473,-2.258 0.473,-2.258 0.109,0.818 0.967,1.841 0.967,1.841 0.421,-3.941 3.1,-4.745 3.947,-4.713 1.042,0.041 1.264,1.167 1.264,1.167 z"
   id="path109" />&#10;				<path
   style="fill:#e4897b"
   d="m 386.718,278.332 c -0.559,1.882 -1.939,3.322 -3.374,4.057 -2.159,1.106 -3.743,-0.716 -3.566,-3.013 0.16,-2.067 1.476,-5.133 3.847,-5.286 2.335,-0.151 3.732,2.091 3.093,4.242 z"
   id="path110" />&#10;				<g
   id="g113"
   style="display:none">&#10;					<path
   style="fill:#263238"
   d="m 368.447,282.481 c 0.719,0.679 1.727,2.089 1.727,2.089 0.144,-0.068 0.288,-0.137 0.429,-0.212 1.932,-0.975 2.506,-2.066 2.556,-2.979 0.026,-0.499 -0.112,-0.949 -0.269,-1.293 -0.177,-0.4 -0.395,-0.644 -0.395,-0.644 -0.715,1.129 -2.446,2.177 -3.394,2.698 -0.395,0.221 -0.654,0.341 -0.654,0.341 z"
   id="path111" />&#10;					<path
   style="fill:rgb(72 72 72)"
   d="m 369.101,282.138 0.525,0.603 c 1.818,-0.923 2.973,-1.817 3.264,-2.656 -0.177,-0.4 -0.395,-0.644 -0.395,-0.644 -0.715,1.128 -2.446,2.176 -3.394,2.697 z"
   id="path112" />&#10;					<path
   style="fill:#a24e3f"
   d="m 370.603,284.357 c 1.932,-0.975 2.506,-2.066 2.556,-2.979 -0.645,0.358 -1.384,0.861 -1.93,1.508 -0.42,0.493 -0.58,1.009 -0.626,1.471 z"
   id="path113" />&#10;				</g>&#10;			</g>&#10;		</g>&#10;	</g>&#10;</g>&#10;<g
   id="Character_2"
   transform="translate(0,-54.952)">&#10;	<g
   id="g159">&#10;		<g
   id="g117">&#10;			<path
   style="fill:rgb(99 89 133)"
   d="m 194.408,306.183 0.523,5.549 c 0,0 32.48,4.937 37.679,10.019 5.199,5.082 23.653,85.088 23.653,85.088 l -7.449,1.025 c 0,0 -25.817,-59.016 -27.2,-67.548 0,0 -22.736,0.849 -38.255,0.849 -15.519,0 -17.373,-34.983 -17.373,-34.983 h 28.422 z"
   id="path115" />&#10;			<path
   style="opacity:0.3;fill:rgb(72 72 72)"
   d="m 256.262,406.835 -7.444,1.033 c 0,0 -10.56,-24.124 -18.53,-43.762 -4.506,-11.067 -8.176,-20.707 -8.673,-23.786 0,0 -15.732,0.582 -29.954,0.779 -2.882,0.038 -5.688,0.066 -8.298,0.066 -15.526,0 -17.375,-34.985 -17.375,-34.985 h 28.424 l 0.516,5.548 c 0,0 32.488,4.938 37.679,10.025 5.2,5.078 23.655,85.082 23.655,85.082 z"
   id="path116" />&#10;			<path
   style="fill:#263238"
   d="m 261.99,414.026 c -5.01,0 -5.672,-0.077 -8.487,-0.172 -2.41,-0.086 -2.987,0.215 -4.924,0.172 -1.619,-0.035 -1.558,-1.584 -1.059,-3.366 0.25,-0.895 0.634,-2.787 0.979,-4.233 l 7.34,-0.533 c 1.033,1.971 3.363,4.783 6.187,5.163 2.694,0.36 1.961,2.969 -0.036,2.969 z"
   id="path117" />&#10;		</g>&#10;		<path
   style="opacity:0.2;enable-background:new"
   d="m 230.288,364.106 c -4.506,-11.067 -8.176,-20.707 -8.673,-23.786 0,0 -15.732,0.582 -29.954,0.779 l -1.545,-27.191 c 0,0 20.086,2.877 33.582,14.509 1.676,1.444 5.004,23.711 6.59,35.689 z"
   id="path118" />&#10;		<g
   id="g126">&#10;			<path
   style="fill:#263238"
   d="m 169.672,338.262 h 49.127 c 2.481,0 4.493,2.012 4.493,4.493 v 3.569 H 165.18 v -3.569 c 0,-2.482 2.011,-4.493 4.492,-4.493 z"
   id="path119" />&#10;			<path
   style="opacity:0.2;fill:rgb(72 72 72)"
   d="m 169.672,338.262 h 49.127 c 2.481,0 4.493,2.012 4.493,4.493 v 3.569 H 165.18 v -3.569 c 0,-2.482 2.011,-4.493 4.492,-4.493 z"
   id="path120" />&#10;			<path
   style="display:inline;fill:#263238"
   d="m 221.272,398.58 -22.402,-1.953 v -29.421 h -7.876 v 29.413 l -22.482,1.961 c -1.981,0.195 -3.491,1.86 -3.491,3.851 v 2.984 h 29.141 1.46 29.141 v -2.984 c -0.001,-1.991 -1.51,-3.656 -3.491,-3.851 z"
   id="path121" />&#10;			<path
   style="fill:#263238"
   d="m 172.273,409.116 c 0,2.844 -2.305,5.149 -5.149,5.149 -2.844,0 -5.149,-2.305 -5.149,-5.149 0,-2.844 2.305,-5.149 5.149,-5.149 2.843,0 5.149,2.305 5.149,5.149 z"
   id="path122" />&#10;			<circle
   style="fill:#263238"
   cx="222.659"
   cy="409.116"
   r="5.1490002"
   id="circle122" />&#10;			<path
   style="fill:#263238"
   d="m 196.512,373.208 h -3.16 c -2.051,0 -3.714,-1.663 -3.714,-3.714 v -25.085 h 10.588 v 25.086 c 0,2.051 -1.663,3.713 -3.714,3.713 z"
   id="path123" />&#10;			<path
   style="opacity:0.2;fill:rgb(72 72 72);enable-background:new"
   d="m 196.512,373.208 h -3.16 c -2.051,0 -3.714,-1.663 -3.714,-3.714 v -25.085 h 10.588 v 25.086 c 0,2.051 -1.663,3.713 -3.714,3.713 z"
   id="path124" />&#10;			<g
   id="g125">&#10;				<path
   style="fill:#263238"
   d="m 164.775,343.232 h 58.921 c 0.998,0 1.807,0.809 1.807,1.807 v 0.416 c 0,0.998 -0.809,1.807 -1.807,1.807 h -58.921 c -0.998,0 -1.807,-0.809 -1.807,-1.807 v -0.417 c 0,-0.997 0.809,-1.806 1.807,-1.806 z"
   id="path125" />&#10;			</g>&#10;			<path
   style="opacity:0.2;fill:rgb(72 72 72);enable-background:new"
   d="m 172.273,409.116 c 0,2.844 -2.305,5.149 -5.149,5.149 -2.844,0 -5.149,-2.305 -5.149,-5.149 0,-2.844 2.305,-5.149 5.149,-5.149 2.843,0 5.149,2.305 5.149,5.149 z"
   id="path126" />&#10;			<circle
   style="opacity:0.2;fill:rgb(72 72 72);enable-background:new"
   cx="222.659"
   cy="409.116"
   r="5.1490002"
   id="circle126" />&#10;		</g>&#10;		<g
   id="g130">&#10;			<path
   style="fill:#263238"
   d="m 228.23,296.859 h -17.95 c -5.259,0 -9.056,-4.725 -8.482,-10.553 l 0.766,-7.78 c 0.574,-5.828 5.302,-10.553 10.56,-10.553 h 17.95 c 5.258,0 9.056,4.725 8.482,10.554 l -0.766,7.78 c -0.574,5.827 -5.302,10.552 -10.56,10.552 z"
   id="path127" />&#10;			<path
   style="opacity:0.2;fill:rgb(72 72 72)"
   d="m 228.23,296.859 h -17.95 c -5.259,0 -9.056,-4.725 -8.482,-10.553 l 0.766,-7.78 c 0.574,-5.828 5.302,-10.553 10.56,-10.553 h 17.95 c 5.258,0 9.056,4.725 8.482,10.554 l -0.766,7.78 c -0.574,5.827 -5.302,10.552 -10.56,10.552 z"
   id="path128" />&#10;			<path
   style="fill:#263238"
   d="m 226.583,293.069 h -10.608 c -3.107,0 -5.352,-2.792 -5.013,-6.237 l 0.453,-4.598 c 0.339,-3.444 3.133,-6.236 6.241,-6.236 h 10.608 c 3.107,0 5.352,2.792 5.013,6.237 l -0.453,4.598 c -0.339,3.444 -3.133,6.236 -6.241,6.236 z"
   id="path129" />&#10;			<path
   style="fill:#263238"
   d="m 218.164,286.209 c 0,0 -2.426,48.648 -12.903,57.024 h 11.205 c 0,0 9.993,-16.573 10.738,-57.024 z"
   id="path130" />&#10;		</g>&#10;		<g
   id="g158">&#10;			<path
   style="fill:#b97964"
   d="m 227.184,265.941 1.931,-1.039 c 0.726,-0.391 1.597,-0.407 2.337,-0.042 l 3.458,1.703 c 1.382,0.681 2.35,1.989 2.595,3.511 l 0.152,0.942 c -3.086,1.943 -7.852,1.769 -7.852,1.769 l -1.364,0.101 c -1.215,0.089 -2.23,-0.745 -2.333,-1.918 l -0.236,-2.7 c -0.08,-0.933 0.441,-1.859 1.312,-2.327 z"
   id="path131" />&#10;			<path
   style="opacity:0.2;enable-background:new"
   d="m 227.184,265.941 1.931,-1.039 c 0.726,-0.391 1.597,-0.407 2.337,-0.042 l 3.458,1.703 c 1.382,0.681 2.35,1.989 2.595,3.511 l 0.152,0.942 c -3.086,1.943 -7.852,1.769 -7.852,1.769 l -1.364,0.101 c -1.215,0.089 -2.23,-0.745 -2.333,-1.918 l -0.236,-2.7 c -0.08,-0.933 0.441,-1.859 1.312,-2.327 z"
   id="path132" />&#10;			<path
   style="fill:rgb(99 89 133)"
   d="m 212.976,268.323 -7.009,8.852 h -6.655 l 0.863,-12.353 c 5.079,0.966 12.801,3.501 12.801,3.501 z"
   id="path133" />&#10;			<path
   style="opacity:0.2;enable-background:new"
   d="m 205.413,277.174 h -5.764 l 3.576,-8.852 c 0.001,10e-4 2.057,3.108 2.188,8.852 z"
   id="path134" />&#10;			<path
   style="fill:rgb(99 89 133)"
   d="m 194.844,309.521 -29.315,-2.722 c 0.92,-3.116 1.727,-6.176 2.412,-9.133 0.854,-3.605 1.539,-7.068 2.084,-10.297 0.563,-3.229 0.986,-6.233 1.314,-8.946 0.028,-0.263 0.066,-0.516 0.094,-0.77 0.047,-0.432 0.094,-0.854 0.141,-1.258 0.282,-2.628 0.469,-4.919 0.591,-6.805 0.244,-3.689 0.244,-5.82 0.244,-5.82 16.915,-3.182 30.15,1.793 30.15,1.793 4.356,12.278 -7.715,43.958 -7.715,43.958 z"
   id="path135" />&#10;			<g
   id="g137">&#10;				<path
   style="fill:#b97964"
   d="m 194.74,267.515 c 0,0 -0.001,0.001 -0.001,0.003 -1.949,4.048 -7.561,4.456 -10.066,0.726 l -1.271,-1.893 -1.558,-2.319 c 2.619,-1.549 3.642,-6.515 3.98,-10.776 0,0 0,0 0,-0.009 0.103,-1.333 0.15,-2.6 0.15,-3.67 l 6.58,9.03 c -0.46,0.986 -0.845,2.009 -1.023,3.022 -0.085,0.432 -0.122,0.864 -0.103,1.295 0.055,1.691 0.919,3.305 3.312,4.591 z"
   id="path136" />&#10;				<path
   style="opacity:0.2;enable-background:new"
   d="m 192.553,258.607 c -0.46,0.986 -0.845,2.009 -1.023,3.022 -1.727,2.215 -4.421,4.571 -8.129,4.722 l -1.558,-2.319 c 2.619,-1.549 3.642,-6.515 3.98,-10.776 0,0 0,0 0,-0.009 0.103,-1.333 0.15,-2.6 0.15,-3.67 z"
   id="path137" />&#10;			</g>&#10;			<g
   id="g150"
   style="display:inline">&#10;				<path
   style="fill:#263238"
   d="m 176.739,243.585 c 0,0 -3.251,-1.229 -2.294,-3.477 0.956,-2.248 2.122,-2.225 2.122,-2.225 0,0 -1.728,-2.994 -0.117,-6.016 1.611,-3.022 5.167,-1.78 5.167,-1.78 0,0 0.014,-3.419 3.306,-4.035 3.292,-0.617 4.676,2.456 4.676,2.456 0,0 2.244,-2.908 5.521,-2.107 3.277,0.8 3.944,5.365 3.944,5.365 0,0 3.019,-1.085 4.553,2.197 1.535,3.281 -0.528,5.777 -0.528,5.777 0,0 2.092,-0.988 2.786,2.368 0.694,3.356 -2.831,6.333 -2.831,6.333 0,0 1.897,0.232 0.919,2.718 -0.978,2.486 -4.069,2.537 -4.069,2.537 0,0 1.195,0.61 -1.077,2.654 -2.272,2.044 -9.58,-0.876 -9.58,-0.876 z"
   id="path138" />&#10;				<path
   style="fill:#b97964"
   d="m 185.681,238.239 c -6.985,0.365 -9.037,4.222 -9.172,11.447 -0.169,9.028 2.16,15.314 10.793,12.936 11.723,-3.23 9.978,-24.99 -1.621,-24.383 z"
   id="path139" />&#10;				<path
   style="fill:#a24e3f"
   d="m 181.004,249.059 c 0,0 -0.872,1.875 -1.881,3.003 0,0 0.648,0.919 1.882,0.694 z"
   id="path140" />&#10;				<g
   id="g142">&#10;					<path
   style="fill:#263238"
   d="m 185.249,248.264 c 0.017,0.575 0.34,1.031 0.723,1.02 0.383,-0.011 0.68,-0.486 0.663,-1.06 -0.017,-0.575 -0.34,-1.031 -0.723,-1.02 -0.383,0.011 -0.68,0.486 -0.663,1.06 z"
   id="path141" />&#10;					<path
   style="fill:#263238"
   d="m 186.073,247.227 -1.264,-0.454 c 0,0 0.653,1.034 1.264,0.454 z"
   id="path142" />&#10;				</g>&#10;				<g
   id="g144">&#10;					<path
   style="fill:#263238"
   d="m 178.104,248.351 c 0.017,0.575 0.34,1.031 0.723,1.02 0.383,-0.011 0.68,-0.486 0.663,-1.06 -0.017,-0.575 -0.34,-1.031 -0.724,-1.02 -0.381,0.011 -0.678,0.486 -0.662,1.06 z"
   id="path143" />&#10;					<path
   style="fill:#263238"
   d="m 178.928,247.314 -1.264,-0.454 c 0.001,0 0.653,1.034 1.264,0.454 z"
   id="path144" />&#10;				</g>&#10;				<path
   style="fill:#263238"
   d="m 188.151,244.632 c -0.081,0 -0.162,-0.032 -0.221,-0.098 -1.007,-1.112 -2.793,-0.81 -2.811,-0.804 -0.165,0.025 -0.316,-0.079 -0.346,-0.24 -0.029,-0.161 0.078,-0.315 0.239,-0.345 0.086,-0.017 2.126,-0.372 3.359,0.99 0.11,0.121 0.101,0.31 -0.021,0.42 -0.056,0.051 -0.127,0.077 -0.199,0.077 z"
   id="path145" />&#10;				<path
   style="fill:#263238"
   d="m 177.221,244.425 c -0.091,0 -0.18,-0.041 -0.239,-0.119 -0.098,-0.132 -0.07,-0.318 0.062,-0.416 1.599,-1.189 2.963,-0.782 3.02,-0.766 0.157,0.049 0.244,0.216 0.195,0.373 -0.049,0.156 -0.213,0.244 -0.371,0.195 v 0 c -0.046,-0.014 -1.145,-0.327 -2.49,0.674 -0.053,0.04 -0.115,0.059 -0.177,0.059 z"
   id="path146" />&#10;				<path
   style="fill:#263238"
   d="m 193.93,249.611 c 0,0 -3.566,-5.568 -3.303,-10.024 0,0 -14.137,-4.93 -14.085,9.154 0,0 -2.005,-12.404 9.987,-13.31 11.973,-0.905 12.86,16.662 6.933,22.22 0.001,10e-4 2.677,-4.557 0.468,-8.04 z"
   id="path147" />&#10;				<path
   style="fill:#b97964"
   d="m 192.867,251.145 c -0.012,-1.127 1.049,-3.091 3.152,-2.972 2.177,0.123 3.441,4.512 -1.887,5.862 -0.765,0.194 -1.24,-0.538 -1.265,-2.89 z"
   id="path148" />&#10;				<path
   style="display:none;fill:#263238"
   d="m 182.693,256.825 c -0.361,0 -0.596,-0.039 -0.605,-0.04 -0.162,-0.028 -0.27,-0.182 -0.242,-0.344 0.027,-0.161 0.183,-0.271 0.343,-0.242 0.111,0.018 2.74,0.436 3.715,-1.979 0.061,-0.153 0.235,-0.226 0.387,-0.164 0.152,0.062 0.226,0.234 0.164,0.387 -0.845,2.097 -2.775,2.382 -3.762,2.382 z"
   id="path149" />&#10;				<path
   style="fill:rgb(99 89 133)"
   d="m 196.497,247.057 c -1.662,-8.672 -14.486,-15.942 -19.3,-5.863 0,0 0.993,-3.731 4.474,-6.364 0,0 13.017,-3.714 15.293,11.104 z"
   id="path150" />&#10;			</g>&#10;			<path
   style="fill:#263238"
   d="m 189.667,414.026 c -5.01,0 -5.672,-0.077 -8.487,-0.172 -2.41,-0.086 -2.987,0.215 -4.924,0.172 -1.619,-0.035 -1.558,-1.584 -1.059,-3.366 0.25,-0.895 0.635,-2.787 0.979,-4.233 l 7.34,-0.533 c 1.033,1.971 3.363,4.783 6.187,5.163 2.694,0.36 1.962,2.969 -0.036,2.969 z"
   id="path151" />&#10;			<path
   style="fill:rgb(99 89 133)"
   d="m 165.988,306.183 c 0,0 -10.041,14.869 -4.577,27.085 5.464,12.216 32.826,6.705 32.826,6.705 l -18.06,66.454 8.645,1.438 c 0,0 30.629,-65.873 31.411,-77.104 0.782,-11.231 -32.289,-18.44 -32.289,-18.44 z"
   id="path152" />&#10;			<path
   style="opacity:0.3;fill:rgb(72 72 72)"
   d="m 165.988,306.183 c 0,0 -10.041,14.869 -4.577,27.085 5.464,12.216 32.826,6.705 32.826,6.705 l -18.06,66.454 8.645,1.438 c 0,0 30.629,-65.873 31.411,-77.104 0.782,-11.231 -32.289,-18.44 -32.289,-18.44 z"
   id="path153" />&#10;			<path
   style="opacity:0.2;enable-background:new"
   d="m 196.496,272.03 c 0,0 -13.977,9.856 -25.063,5.623 0.047,-0.432 0.094,-0.854 0.141,-1.258 0.282,-2.628 0.469,-4.919 0.591,-6.805 4.693,-2.319 11.124,-3.952 11.124,-3.952 0,0 5.678,4.609 13.207,6.392 z"
   id="path154" />&#10;			<path
   style="fill:#b97864"
   d="m 176.947,263.789 c 6.163,2.971 12.523,6.728 19.236,8.103 3.862,-0.254 8.177,-1.824 12.061,-2.882 0.003,-0.003 11.624,-3.519 11.629,-3.522 1.112,-0.337 2.285,0.292 2.622,1.403 0.293,0.967 -0.146,1.982 -0.997,2.451 -3.627,1.999 -7.293,3.84 -11.08,5.518 -4.675,1.92 -9.004,4.164 -14.278,4.645 -2.01,0.012 -3.803,-0.361 -5.597,-0.823 -6.279,-1.754 -11.957,-4.373 -17.638,-7.474 -4.688,-2.852 -0.893,-9.816 4.042,-7.419 z"
   id="path155" />&#10;			<path
   style="fill:rgb(99 89 133)"
   d="m 173.69,262.679 c -5.385,1.279 -5.57,10.535 -0.619,14.867 l 11.996,-10.129 c 0,0 -4.983,-6.257 -11.377,-4.738 z"
   id="path156" />&#10;			<g
   id="g157">&#10;				<path
   style="fill:#b97964"
   d="m 220.227,265.539 6.654,-0.163 -3.021,6.736 c 0,0 -5.946,-0.214 -5.707,-3.272 z"
   id="path157" />&#10;				<polygon
   style="fill:#b97964"
   points="232.593,268.668 228.03,273.578 223.86,272.113 226.881,265.377 "
   id="polygon157" />&#10;			</g>&#10;		</g>&#10;	</g>&#10;</g>&#10;<g
   id="Character_3"
   transform="translate(0,-54.952)">&#10;	<g
   id="g183">&#10;		<path
   style="fill:#dc897c"
   d="m 321.882,346.506 c 4.651,9.623 9.132,19.244 12.16,29.547 1.388,6.987 1.643,14.118 2.164,21.066 0.359,5.748 0.573,11.495 0.651,17.264 l -5.147,0.532 c -1.627,-8.11 -3.158,-17.154 -4.585,-25.339 -0.671,-3.701 -1.197,-7.34 -2.13,-10.901 -3.54,-9.169 -8.448,-18.606 -12.52,-27.624 10e-4,0.001 9.407,-4.545 9.407,-4.545 z"
   id="path159" />&#10;		<path
   style="fill:rgb(99 89 133)"
   d="m 329.56,359.099 -8.15,3.94 -5.06,2.45 -3.07,-7.38 -3.21,-7.73 2.71,-14.09 c 8.32,3.6 16.78,22.81 16.78,22.81 z"
   id="path160" />&#10;		<path
   style="opacity:0.2"
   d="m 321.409,363.039 -5.06,2.45 -3.07,-7.38 c 0.63,-4.18 1.16,-7.73 1.16,-7.73 0,0 5.921,5.27 6.97,12.66 z"
   id="path161" />&#10;		<g
   id="g168">&#10;			<path
   style="fill:#263238"
   d="m 296.946,310.703 c 0.092,0.596 0.483,1.03 0.873,0.97 0.39,-0.06 0.631,-0.592 0.538,-1.188 -0.092,-0.596 -0.483,-1.03 -0.873,-0.97 -0.39,0.06 -0.631,0.592 -0.538,1.188 z"
   id="path162" />&#10;			<path
   style="fill:#de5753"
   d="m 297.374,311.741 c 0,0 1.888,3.228 3.638,4.656 -0.902,1.148 -2.764,0.976 -2.764,0.976 z"
   id="path163" />&#10;			<path
   style="fill:#263238"
   d="m 294.25,307.732 c -0.086,-0.004 -0.171,-0.039 -0.236,-0.105 -0.137,-0.139 -0.136,-0.364 0.004,-0.501 1.396,-1.376 2.996,-1.045 3.065,-1.03 0.191,0.042 0.312,0.231 0.27,0.422 -0.042,0.191 -0.233,0.311 -0.42,0.271 v 0 c -0.053,-0.011 -1.305,-0.255 -2.418,0.842 -0.073,0.071 -0.169,0.105 -0.265,0.101 z"
   id="path164" />&#10;			<path
   style="fill:#e4897b"
   d="m 298.858,319.739 c -0.07,0.88 -0.25,1.72 -0.52,2.52 -0.51,1.49 -1.34,2.82 -2.39,3.9 -1.12,1.15 -2.49,2.02 -3.98,2.53 -2.75,0.94 -5.9,0.65 -8.67,-1.41 -4.28,-3.18 -4.84,-7.51 -6.42,-14.76 -1.59,-7.25 4.73,-13.89 12.23,-12.12 7.62,1.81 10.3,12.52 9.75,19.34 z"
   id="path165" />&#10;			<path
   style="fill:#263238"
   d="m 279.613,324.351 c 2.963,1.885 14.335,-3.419 12.467,-12.351 0,0 4.466,-4.887 4.25,-10.52 -0.215,-5.633 -3.967,-7.952 -8.12,-6.94 -3.661,0.893 -3.649,2.875 -3.649,2.875 0,0 -17.162,1.212 -13.843,8.32 -7.302,7.251 5.198,16.264 8.895,18.616 z"
   id="path166" />&#10;			<path
   style="fill:#e4897b"
   d="m 289.04,313.391 c 0.4,1.902 1.559,3.576 2.806,4.597 1.876,1.537 3.394,0.181 3.359,-2.025 -0.032,-1.986 -1.046,-5.178 -3.163,-5.865 -2.086,-0.676 -3.459,1.118 -3.002,3.293 z"
   id="path167" />&#10;			<path
   style="opacity:0.2"
   d="m 298.338,322.259 c -0.51,1.49 -1.34,2.82 -2.39,3.9 -1.12,1.15 -2.49,2.02 -3.98,2.53 -1.65,-0.83 -2.92,-1.77 -2.92,-1.77 l 1.52,-3.73 c 0,0 4.638,2.285 7.77,-0.93 z"
   id="path168" />&#10;		</g>&#10;		<path
   style="fill:#e4897b"
   d="m 282.05,333.504 -1.281,-8.775 c 0,0 5.711,-3.969 11.686,-1.309 l 8.972,10.849 z"
   id="path169" />&#10;		<path
   style="fill:rgb(99 89 133)"
   d="m 302.5,333.187 -2.088,-3.125 c 0,0 -15.158,-5.613 -21.767,1.574 0,0 14.781,7.82 23.855,1.551 z"
   id="path170" />&#10;		<path
   style="opacity:0.2"
   d="m 302.5,333.187 -2.088,-3.125 c 0,0 -15.158,-5.613 -21.767,1.574 0,0 14.781,7.82 23.855,1.551 z"
   id="path171" />&#10;		<g
   id="g174">&#10;			<polygon
   style="fill:#e4897b"
   points="240.77,411.275 246.725,402.395 252.438,406.069 245.861,415.882 244.29,418.22 238.583,414.539 "
   id="polygon171" />&#10;			<path
   style="fill:#263238"
   d="m 238.973,414.068 7.953,-0.076 c 0.268,-0.001 0.501,0.183 0.562,0.444 l 1.346,5.817 c 0.115,0.521 -0.213,1.037 -0.734,1.152 -0.07,0.015 -0.141,0.023 -0.212,0.023 -2.574,-0.017 -4.449,-0.157 -7.68,-0.127 -1.99,0.019 -7.993,0.284 -10.741,0.311 -2.748,0.026 -3.132,-2.685 -2.01,-2.946 5.036,-1.147 8.819,-2.708 10.421,-4.172 0.296,-0.277 0.689,-0.43 1.095,-0.426 z"
   id="path172" />&#10;			<path
   style="fill:#263238"
   d="m 240.536,409.061 10.468,2.822 56.78,-43.087 -29.13,-6.373 c -4.273,-0.935 -8.677,0.885 -11.044,4.563 z"
   id="path173" />&#10;			<path
   style="opacity:0.2"
   d="m 240.536,409.061 10.468,2.822 56.78,-43.087 -29.13,-6.373 c -4.273,-0.935 -8.677,0.885 -11.044,4.563 z"
   id="path174" />&#10;		</g>&#10;		<polygon
   style="fill:#e4897b"
   points="205.615,411.682 211.09,402.499 216.989,405.865 210.943,416.013 209.499,418.431 203.604,415.058 "
   id="polygon174" />&#10;		<path
   style="fill:#263238"
   d="m 203.835,413.934 h 7.954 c 0.268,10e-4 0.5,0.188 0.558,0.45 l 1.291,5.83 c 0.111,0.522 -0.223,1.035 -0.745,1.145 -0.07,0.015 -0.141,0.022 -0.212,0.021 -2.574,-0.042 -4.447,-0.2 -7.679,-0.2 -1.99,0 -7.995,0.208 -10.743,0.208 -2.748,0 -3.106,-2.715 -1.982,-2.965 5.047,-1.099 8.845,-2.624 10.46,-4.073 0.298,-0.275 0.691,-0.424 1.098,-0.416 z"
   id="path175" />&#10;		<g
   id="g176">&#10;			<path
   style="fill:rgb(99 89 133)"
   d="m 321.48,391.42 c -11.961,0.028 -33.874,0.078 -39.697,0.1 -0.978,-3.522 -2.265,-15.766 -6.149,-30.917 -1.043,-4.113 -2.29,-8.432 -3.768,-12.862 -1.61,-4.813 -2.21,-6.811 -4.434,-11.712 0,0 5.318,-3.402 11.653,-4.488 17.574,-3.014 33.694,4.743 33.694,4.743 0,0 6.973,19.37 8.701,55.136 z"
   id="path176" />&#10;		</g>&#10;		<path
   style="opacity:0.2"
   d="m 275.635,360.603 c -1.043,-4.113 -2.29,-8.432 -3.768,-12.862 l 2.777,-1.119 c 10e-4,0 4.304,9.828 0.991,13.981 z"
   id="path177" />&#10;		<path
   style="fill:#e4897b"
   d="m 258.274,367.403 4.603,2.18 1.765,-7.765 c 0,0 -3.68,-1.284 -6.442,0.592 z"
   id="path178" />&#10;		<polygon
   style="fill:#e4897b"
   points="269.488,372.207 269.703,365.136 264.643,361.818 262.877,369.584 "
   id="polygon178" />&#10;		<path
   style="fill:#dc897c"
   d="m 272.643,348.153 c -7.677,4.152 -16.438,7.959 -23.104,13.431 -0.152,0.125 -0.102,0.186 0.067,-0.392 0.002,-0.103 0.061,-0.543 -0.135,-1.096 -0.189,-0.556 -0.58,-0.886 -0.688,-0.916 -0.129,-0.047 -0.055,0.07 0.128,0.188 0.178,0.123 0.464,0.258 0.787,0.397 3.081,1.162 7.355,1.552 10.808,1.983 l 0.519,5.148 c -1.098,0.312 -2.113,0.52 -3.184,0.728 -4.032,0.689 -8.147,1.172 -12.36,-0.213 -3.6,-1.115 -6.083,-5.034 -4.929,-8.84 2.058,-7.313 20.701,-16.435 27.537,-19.819 -10e-4,0 4.554,9.401 4.554,9.401 z"
   id="path179" />&#10;		<path
   style="fill:#263238"
   d="m 279.905,383.067 -1.77,4.56 c 0,0 -21.275,-26.278 -33.048,-27.78 -11.773,-1.502 -39.003,48.444 -39.003,48.444 l 10.34,3.132 29.095,-26.403 c 12.034,20.941 26.349,36.302 43.412,36.302 6.332,0 12.168,0 16.659,0 18.633,0 18.837,-20.788 15.164,-38.405 z"
   id="path180" />&#10;		<path
   style="fill:rgb(99 89 133)"
   d="m 267.433,336.03 c -6.669,2.441 -14.512,9.841 -14.512,9.841 0,0 6.6,11.437 7.256,11 0.656,-0.437 14.201,-4.325 14.201,-4.325 0,0 2.762,-3.572 0.642,-9.633 -2.12,-6.061 -7.587,-6.883 -7.587,-6.883 z"
   id="path181" />&#10;		<g
   id="g182">&#10;			<path
   style="fill:#e4897b"
   d="m 334.41,410.931 7.247,0.36 -3.827,7.08 c 0,0 -6.447,-0.712 -5.94,-4.017 z"
   id="path182" />&#10;			<polygon
   style="fill:#e4897b"
   points="347.602,415.329 342.245,420.299 337.83,418.37 341.657,411.29 "
   id="polygon182" />&#10;		</g>&#10;	</g>&#10;</g>&#10;<g
   id="Character_1"
   transform="translate(0,-54.952)">&#10;	<g
   id="g233">&#10;		<path
   style="fill:#e9b376"
   d="m 109.716,339.224 c 4.864,4.891 9.652,10.384 15.473,14.093 0.043,0.024 0.362,0.197 0.393,0.223 -0.123,-0.05 -0.402,-0.097 -0.491,-0.085 -0.153,0.025 0.085,0.039 0.348,-0.01 6.64,-1.88 12.811,-6.21 18.926,-9.531 2.273,-1.373 4.633,1.706 2.725,3.54 -4.763,4.404 -17.591,16.193 -24.33,13.726 -4.117,-1.515 -7.555,-4.347 -10.799,-7.08 -3.207,-2.777 -6.102,-5.655 -8.93,-8.819 -3.812,-4.532 2.545,-10.299 6.685,-6.057 z"
   id="path183" />&#10;		<path
   style="fill:rgb(99 89 133)"
   d="m 118.08,346.145 c -0.854,6.355 -6.017,12.597 -6.017,12.597 l -1.061,-0.704 -5.266,-3.492 c 0,0 -0.094,-0.3 -0.244,-0.826 -0.15,-0.479 -0.338,-1.145 -0.573,-1.953 -1.211,-4.233 -3.389,-12.165 -3.661,-15.46 6.534,-0.234 9.472,2.873 16.822,9.838 z"
   id="path184" />&#10;		<path
   style="opacity:0.7;fill:rgb(72 72 72);enable-background:new"
   d="m 118.08,346.145 c -0.854,6.355 -6.017,12.597 -6.017,12.597 l -1.061,-0.704 -5.266,-3.492 c 0,0 -0.094,-0.3 -0.244,-0.826 -0.15,-0.479 -0.338,-1.145 -0.573,-1.953 -1.211,-4.233 -3.389,-12.165 -3.661,-15.46 6.534,-0.234 9.472,2.873 16.822,9.838 z"
   id="path185" />&#10;		<path
   style="opacity:0.2"
   d="m 111.002,358.038 -5.266,-3.492 c 0,0 -0.094,-0.3 -0.244,-0.826 0.169,-1.464 0.46,-3.06 0.882,-4.778 0.001,0 4.441,3.117 4.628,9.096 z"
   id="path186" />&#10;		<g
   id="g188">&#10;			<path
   style="fill:#263238"
   d="m 104.6,377.498 4.487,7.864 c 12.026,-2.801 50.58,-8.682 55.314,4.545 5.884,16.438 -36.638,29.542 -60.172,30.344 -23.534,0.802 -44.057,-4.805 -29.179,-39.112 z"
   id="path187" />&#10;			<path
   style="opacity:0.2;enable-background:new"
   d="m 104.6,377.498 4.487,7.864 c 12.026,-2.801 50.58,-8.682 55.314,4.545 5.884,16.438 -36.638,29.542 -60.172,30.344 -23.534,0.802 -44.057,-4.805 -29.179,-39.112 z"
   id="path188" />&#10;		</g>&#10;		<path
   style="fill:#263238"
   d="m 157.586,413.145 c -0.054,0.033 -0.123,0.03 -0.173,-0.009 -0.047,-0.033 -0.063,-0.093 -0.041,-0.146 0.077,-0.262 0.856,-2.524 1.645,-2.762 0.17,-0.041 0.349,0.011 0.47,0.137 0.223,0.185 0.33,0.474 0.28,0.76 -0.128,0.423 -0.386,0.795 -0.738,1.063 -0.448,0.366 -0.931,0.687 -1.443,0.957 z m 0.202,-0.435 c 0.733,-0.322 1.328,-0.895 1.676,-1.616 0.041,-0.197 -0.037,-0.399 -0.199,-0.518 -0.044,-0.055 -0.118,-0.076 -0.185,-0.054 -0.067,0.023 -0.128,0.059 -0.181,0.105 -0.493,0.622 -0.869,1.328 -1.111,2.083 z"
   id="path189" />&#10;		<path
   style="fill:#263238"
   d="m 157.544,413.174 c -0.053,0.02 -0.112,0.002 -0.146,-0.043 -0.073,-0.063 -1.16,-1.435 -0.981,-2.361 0.043,-0.231 0.178,-0.436 0.375,-0.567 0.17,-0.163 0.43,-0.188 0.627,-0.059 0.569,0.401 0.499,2.236 0.22,2.932 l -0.02,0.07 c -0.022,0.016 -0.048,0.026 -0.075,0.028 z m -0.617,-2.689 c -0.098,0.085 -0.164,0.201 -0.189,0.329 -0.113,0.585 0.433,1.464 0.728,1.885 0.179,-0.784 0.121,-2.071 -0.212,-2.303 -0.036,-0.019 -0.104,-0.073 -0.272,0.045 z"
   id="path190" />&#10;		<path
   style="fill:#263238"
   d="m 116.215,417.001 c 0.031,-0.055 0.093,-0.085 0.156,-0.076 0.056,0.006 0.101,0.052 0.106,0.108 0.06,0.266 0.473,2.624 -0.102,3.213 -0.129,0.119 -0.311,0.16 -0.478,0.108 -0.284,-0.053 -0.518,-0.255 -0.612,-0.529 -0.093,-0.432 -0.048,-0.882 0.131,-1.287 0.215,-0.539 0.482,-1.053 0.799,-1.537 z m 0.034,0.478 c -0.485,0.637 -0.728,1.426 -0.685,2.226 0.06,0.192 0.226,0.331 0.425,0.356 0.066,0.027 0.141,0.01 0.189,-0.042 0.048,-0.052 0.084,-0.113 0.107,-0.18 0.131,-0.782 0.119,-1.581 -0.036,-2.36 z"
   id="path191" />&#10;		<polygon
   style="fill:#ebb376"
   points="117.288,410.197 118.48,415.285 122.983,414.326 133.982,411.982 131.619,405.093 121.938,408.541 "
   id="polygon191" />&#10;		<path
   style="fill:rgb(99 89 133)"
   d="m 119.748,415.526 -0.815,-6.003 c -0.045,-0.334 -0.358,-0.565 -0.692,-0.51 l -2.961,0.493 c 0,0 -4.031,0.379 -4.832,1.412 -2.341,3.02 -0.878,16.345 0.682,16.814 0.571,0.172 1.174,-0.611 1.423,-1.152 0.789,-1.716 2.178,-6.208 2.854,-7.631 0.789,-1.664 2.954,-2.479 3.927,-2.771 0.28,-0.084 0.454,-0.361 0.414,-0.652 z"
   id="path192" />&#10;		<path
   style="fill:#263238"
   d="m 116.238,416.955 c 0.037,-0.043 0.098,-0.056 0.149,-0.033 0.095,0.02 1.709,0.694 2.001,1.591 0.074,0.223 0.055,0.468 -0.054,0.678 -0.069,0.225 -0.285,0.372 -0.52,0.355 -0.691,-0.075 -1.519,-1.715 -1.612,-2.459 l -0.016,-0.071 c 0.011,-0.024 0.029,-0.046 0.052,-0.061 z m 1.842,2.054 c 0.044,-0.123 0.046,-0.256 0.006,-0.379 -0.185,-0.567 -1.088,-1.073 -1.549,-1.298 0.223,0.772 0.896,1.871 1.3,1.912 0.041,-0.001 0.127,0.013 0.216,-0.172 z"
   id="path193" />&#10;		<polygon
   style="opacity:0.2;enable-background:new"
   points="131.619,405.093 121.938,408.541 122.983,414.326 133.982,411.982 "
   id="polygon193" />&#10;		<g
   id="g195">&#10;			<polygon
   style="fill:rgb(99 89 133)"
   points="124.699,415.196 127.484,415.397 125.619,405.817 122.461,407.564 "
   id="polygon194" />&#10;			<polygon
   style="opacity:0.6;fill:rgb(72 72 72);enable-background:new"
   points="124.699,415.196 127.484,415.397 125.619,405.817 122.461,407.564 "
   id="polygon195" />&#10;		</g>&#10;		<path
   style="opacity:0.2;enable-background:new"
   d="m 84.308,377.971 14.502,16.08 c 0,0 16.034,-0.357 35.502,9.159 0,0 20.891,-8.629 22.811,-15.798 2.513,-9.391 -48.036,-2.05 -48.036,-2.05 z"
   id="path195" />&#10;		<path
   style="fill:rgb(99 89 133)"
   d="m 104.45,384.428 -29.575,-3.422 c 0.53,-2.809 0.891,-5.785 1.021,-9.25 0.132,-3.715 -0.01,-7.989 -0.516,-13.244 -0.407,-4.213 -1.047,-9.05 -1.974,-14.732 -0.724,-4.49 2.505,-8.348 6.938,-8.285 1.188,0.021 2.438,0.065 3.719,0.15 4.986,0.331 9.074,0.645 13.436,1.551 1.439,0.298 2.928,0.659 4.359,1.022 5.135,1.335 8.313,7.788 7.872,13.022 -0.248,2.919 -0.135,5.175 -1.344,12.068 -0.906,5.847 -1.977,11.58 -3.936,21.12 z"
   id="path196" />&#10;		<path
   style="opacity:0.7;fill:rgb(72 72 72);enable-background:new"
   d="m 104.45,384.428 -29.575,-3.422 c 0.53,-2.809 0.891,-5.785 1.021,-9.25 0.132,-3.715 -0.01,-7.989 -0.516,-13.244 -0.407,-4.213 -1.047,-9.05 -1.974,-14.732 -0.724,-4.49 2.505,-8.348 6.938,-8.285 1.188,0.021 2.438,0.065 3.719,0.15 4.986,0.331 9.074,0.645 13.436,1.551 1.439,0.298 2.928,0.659 4.359,1.022 5.135,1.335 8.313,7.788 7.872,13.022 -0.248,2.919 -0.135,5.175 -1.344,12.068 -0.906,5.847 -1.977,11.58 -3.936,21.12 z"
   id="path197" />&#10;		<path
   style="opacity:0.2"
   d="m 75.897,371.756 c 0.132,-3.715 -0.01,-7.989 -0.516,-13.244 3.696,-4.371 7.2,-7.988 7.2,-7.988 0,0 5.802,14.917 -6.684,21.232 z"
   id="path198" />&#10;		<path
   style="fill:#e9b376"
   d="m 80.568,348.885 c 0.34,6.332 0.283,16.18 1.436,22.235 0,0 -0.308,-0.743 -0.308,-0.743 -0.201,-0.29 -0.08,-0.036 0.129,0.159 0.213,0.219 0.527,0.488 0.861,0.758 4.046,3.01 8.805,5.301 13.31,7.693 0,0 5.694,2.935 5.694,2.935 1.116,0.562 1.56,1.929 0.987,3.039 -0.484,0.939 -1.539,1.392 -2.523,1.157 -2.163,-0.518 -4.244,-1.141 -6.353,-1.775 -5.999,-2.025 -12.16,-3.92 -17.324,-7.832 -0.62,-0.514 -1.888,-1.731 -2.27,-3.032 -2.309,-8.197 -2.489,-16.115 -2.662,-24.474 0.22,-5.834 8.655,-5.947 9.023,-0.12 z"
   id="path199" />&#10;		<path
   style="fill:#ebb376"
   d="m 109.668,381.557 -1.8,-1.302 c -0.677,-0.49 -1.549,-0.622 -2.34,-0.355 l -3.7,1.246 c -1.479,0.498 -2.625,1.682 -3.076,3.176 l -0.279,0.925 c 2.837,2.364 7.645,2.829 7.645,2.829 l 1.356,0.284 c 1.207,0.253 2.339,-0.449 2.599,-1.613 l 0.598,-2.679 c 0.207,-0.925 -0.192,-1.925 -1.003,-2.511 z"
   id="path200" />&#10;		<path
   style="fill:rgb(99 89 133)"
   d="m 77.873,335.896 c -5.787,2.069 -7.44,7.115 -7.559,17.629 3.003,2.723 12.107,2.875 12.107,2.875 0,0 1.56,-15.935 -4.548,-20.504 z"
   id="path201" />&#10;		<g
   id="g207">&#10;			<path
   style="fill:#263238"
   d="m 147.888,387.346 v 2.383 c 0,0.612 -0.72,0.862 -1.324,0.862 H 98.946 c -0.612,0 -1.347,-0.25 -1.347,-0.862 v -2.383 z"
   id="path202" />&#10;			<path
   style="opacity:0.4;fill:rgb(72 72 72);enable-background:new"
   d="m 147.888,387.346 v 2.383 c 0,0.612 -0.72,0.862 -1.324,0.862 H 98.946 c -0.612,0 -1.347,-0.25 -1.347,-0.862 v -2.383 z"
   id="path203" />&#10;			<path
   style="opacity:0.2;enable-background:new"
   d="m 147.888,387.346 v 2.383 c 0,0.612 -0.72,0.862 -1.324,0.862 h -31.407 c -0.611,0 -1.336,-0.25 -1.336,-0.862 v -2.383 z"
   id="path204" />&#10;			<path
   style="fill:#263238"
   d="m 155.855,362.606 -5.668,25.712 c -0.185,0.847 -1.009,1.461 -1.841,1.461 h -30.965 c -0.825,0 -1.354,-0.769 -1.163,-1.616 l 5.662,-25.515 c 0.191,-0.84 1.008,-1.258 1.84,-1.258 h 30.966 c 0.831,0 1.354,0.376 1.169,1.216 z"
   id="path205" />&#10;			<path
   style="opacity:0.4;fill:rgb(72 72 72);enable-background:new"
   d="m 155.855,362.606 -5.668,25.712 c -0.185,0.847 -1.009,1.461 -1.841,1.461 h -29.913 c -0.832,0 -1.355,-0.769 -1.171,-1.616 l 5.669,-25.515 c 0.184,-0.84 1.008,-1.258 1.84,-1.258 h 29.913 c 0.833,0 1.356,0.376 1.171,1.216 z"
   id="path206" />&#10;			<path
   style="opacity:0.2;enable-background:new"
   d="m 140.588,375.674 v 0.008 c 0,2.201 -2.36,3.99 -4.09,3.99 -1.73,0 -2.756,-1.789 -2.263,-3.99 0.493,-2.158 2.215,-3.917 3.908,-3.983 -0.493,2.201 0.564,3.983 2.286,3.983 0.037,0 0.159,0 0.159,-0.008 z"
   id="path207" />&#10;		</g>&#10;		<g
   id="g208">&#10;			<path
   style="fill:#ebb376"
   d="m 145.503,348.285 6.654,0.168 -3.015,-6.739 c 0,0 -5.946,0.208 -5.71,3.267 z"
   id="path208" />&#10;			<polygon
   style="fill:#ebb376"
   points="157.872,345.167 153.312,340.253 149.142,341.714 152.156,348.453 "
   id="polygon208" />&#10;		</g>&#10;		<path
   style="fill:#ebb376"
   d="m 82.553,335.563 c -0.683,-0.048 1.401,8.293 11.493,10.354 10.092,2.061 9.326,-7.228 8.531,-9.555 0,0 -13.276,-0.325 -20.024,-0.799 z"
   id="path209" />&#10;		<path
   style="fill:#263238"
   d="m 85.322,302.91 c 0,0 5.787,-6.421 16.376,-3.114 10.59,3.307 10.138,22.219 4.765,29.07 0,0 -12.13,-0.696 -25.082,2.345 0,0 -5.1,-13.709 -2.571,-21.766 2.529,-8.058 6.512,-6.535 6.512,-6.535 z"
   id="path210" />&#10;		<g
   id="g212">&#10;			<path
   style="fill:#ebb376"
   d="m 87.447,321.763 c 0.67,4.456 1.192,12.54 -1.95,15.099 0,0 4.164,-0.142 12.234,6.236 2.933,-3.319 1.197,-4.685 1.197,-4.685 -4.772,-1.717 -4.501,-5.309 -3.524,-8.598 z"
   id="path211" />&#10;			<path
   style="opacity:0.2"
   d="m 90.69,325.048 4.709,4.763 c -0.234,0.778 -0.424,1.573 -0.512,2.357 -1.83,-0.481 -4.276,-2.811 -4.393,-4.778 -0.057,-0.982 0.021,-1.909 0.196,-2.342 z"
   id="path212" />&#10;		</g>&#10;		<g
   id="g227"
   style="display:inline">&#10;			<path
   style="fill:#ebb376"
   d="m 84.758,312.664 c 0.506,7.129 0.569,10.149 4.164,13.955 5.408,5.726 13.944,4.012 15.551,-3.01 1.447,-6.321 0.377,-16.917 -6.547,-20.051 -6.82,-3.088 -13.673,1.977 -13.168,9.106 z"
   id="path213" />&#10;			<path
   style="fill:#263238"
   d="m 93.535,314.855 c 0.016,0.6 0.339,1.099 0.72,1.115 0.381,0.016 0.677,-0.458 0.66,-1.058 -0.017,-0.6 -0.339,-1.099 -0.72,-1.115 -0.381,-0.016 -0.676,0.458 -0.66,1.058 z"
   id="path214" />&#10;			<path
   style="fill:#263238"
   d="m 100.968,314.934 c 0.017,0.6 0.339,1.099 0.72,1.115 0.381,0.016 0.677,-0.458 0.66,-1.058 -0.017,-0.6 -0.339,-1.099 -0.72,-1.115 -0.381,-0.016 -0.677,0.458 -0.66,1.058 z"
   id="path215" />&#10;			<path
   style="fill:#263238"
   d="m 101.461,313.902 1.389,-0.358 c 0,0.001 -0.688,1.097 -1.389,0.358 z"
   id="path216" />&#10;			<path
   style="fill:#d58745"
   d="m 98.738,316.159 c 0,0 1.061,2.625 2.185,3.916 -0.75,0.708 -2.068,0.315 -2.068,0.315 z"
   id="path217" />&#10;			<path
   style="fill:#263238"
   d="m 92.336,311.048 c 0.09,0.012 0.183,-0.013 0.255,-0.076 1.117,-0.992 2.344,-0.611 2.358,-0.606 0.182,0.057 0.369,-0.043 0.415,-0.228 0.045,-0.185 -0.067,-0.384 -0.251,-0.444 -0.064,-0.02 -1.604,-0.501 -2.99,0.731 -0.138,0.123 -0.145,0.345 -0.016,0.496 0.061,0.073 0.144,0.116 0.229,0.127 z"
   id="path218" />&#10;			<path
   style="display:inline;fill:#263238"
   d="m 103.902,311.11 c 0.084,0.022 0.173,0.013 0.25,-0.033 0.159,-0.095 0.204,-0.309 0.101,-0.48 -1.031,-1.706 -2.612,-1.841 -2.68,-1.846 -0.189,-0.014 -0.343,0.132 -0.344,0.327 -0.001,0.194 0.152,0.362 0.341,0.377 0.062,0.004 1.288,0.127 2.107,1.484 0.055,0.088 0.137,0.147 0.225,0.171 z"
   id="path219" />&#10;			<path
   style="display:inline;fill:#263238"
   d="m 94.028,313.823 1.389,-0.358 c 0,0.001 -0.687,1.097 -1.389,0.358 z"
   id="path220" />&#10;			<path
   style="display:inline;fill:#263238"
   d="m 86.241,316.936 c 0,0 5.502,-4.316 4.251,-11.081 0,0 9.836,-3.882 13.716,6.038 0,0 0.826,-8.483 -8.429,-10.146 -9.255,-1.663 -20.198,10.886 -9.716,20.393 z"
   id="path221" />&#10;			<path
   style="display:inline;fill:#ebb376"
   d="m 82.486,318.419 c 0.811,1.477 2.157,2.421 3.403,2.761 1.874,0.511 2.711,-1.333 2.107,-3.233 -0.544,-1.711 -2.174,-4.038 -4.015,-3.705 -1.813,0.328 -2.421,2.488 -1.495,4.177 z"
   id="path222" />&#10;			<path
   style="display:inline;fill:#263238"
   d="m 105.289,316.059 c -0.088,0 -0.17,-0.059 -0.195,-0.147 -3.534,-12.431 -15.184,-9.875 -15.302,-9.849 -0.112,0.028 -0.218,-0.042 -0.244,-0.151 -0.025,-0.109 0.043,-0.218 0.152,-0.243 0.121,-0.03 12.145,-2.667 15.783,10.132 0.031,0.108 -0.032,0.22 -0.139,0.251 -0.018,0.004 -0.037,0.007 -0.055,0.007 z"
   id="path223" />&#10;			<g
   id="g226"
   style="display:none">&#10;				<path
   style="fill:#263238"
   d="m 99.196,322.462 c -0.423,0.874 -0.856,2.518 -0.856,2.518 -0.156,-0.012 -0.312,-0.025 -0.467,-0.045 -2.112,-0.221 -3.02,-1.021 -3.384,-1.841 -0.198,-0.45 -0.228,-0.91 -0.204,-1.28 0.023,-0.429 0.138,-0.729 0.138,-0.729 1.05,0.786 3.003,1.144 4.055,1.291 0.439,0.066 0.718,0.086 0.718,0.086 z"
   id="path224" />&#10;				<path
   style="fill:rgb(72 72 72)"
   d="m 98.478,322.375 -0.272,0.736 c -1.989,-0.213 -3.361,-0.63 -3.921,-1.298 0.023,-0.429 0.138,-0.729 0.138,-0.729 1.05,0.787 3.003,1.144 4.055,1.291 z"
   id="path225" />&#10;				<path
   style="fill:#de5753"
   d="m 97.873,324.935 c -2.112,-0.221 -3.02,-1.021 -3.384,-1.841 0.717,0.103 1.57,0.307 2.297,0.71 0.557,0.306 0.884,0.723 1.087,1.131 z"
   id="path226" />&#10;			</g>&#10;		</g>&#10;		<path
   style="fill:#263238"
   d="m 97.529,355.783 c -0.065,0 -0.128,-0.026 -0.173,-0.076 -8.955,-9.755 -11.709,-19.786 -11.736,-19.887 -0.034,-0.125 0.041,-0.254 0.166,-0.287 0.124,-0.037 0.254,0.041 0.287,0.166 0.026,0.098 2.7,9.819 11.353,19.389 0.6,-2.014 3.096,-11.501 -0.653,-18.778 -0.06,-0.115 -0.014,-0.257 0.101,-0.316 0.113,-0.059 0.256,-0.015 0.316,0.102 4.288,8.322 0.599,19.419 0.561,19.529 -0.027,0.079 -0.093,0.138 -0.174,0.154 -0.015,0.003 -0.032,0.004 -0.048,0.004 z"
   id="path227" />&#10;		<path
   style="fill:rgb(72 72 72)"
   d="m 97.835,355.36 0.764,0.972 c 0.137,0.174 0.138,0.419 0.004,0.594 l -0.771,1.005 c -0.186,0.242 -0.547,0.254 -0.749,0.024 l -0.719,-0.82 c -0.141,-0.161 -0.16,-0.395 -0.046,-0.577 l 0.726,-1.157 c 0.178,-0.283 0.584,-0.304 0.791,-0.041 z"
   id="path228" />&#10;		<path
   style="opacity:0.7;fill:rgb(72 72 72);enable-background:new"
   d="m 77.873,335.896 c -5.787,2.069 -7.44,7.115 -7.559,17.629 3.003,2.723 12.107,2.875 12.107,2.875 0,0 1.56,-15.935 -4.548,-20.504 z"
   id="path229" />&#10;		<polygon
   style="fill:#ebb376"
   points="153.354,418.58 154.774,413.549 150.369,412.21 139.611,408.936 138.343,416.109 148.484,417.777 "
   id="polygon229" />&#10;		<path
   style="fill:rgb(99 89 133)"
   d="m 153.781,412.725 -2.193,5.648 c -0.122,0.315 0.04,0.669 0.358,0.782 l 2.83,1.002 c 0,0 3.71,1.62 4.912,1.103 3.51,-1.509 8.681,-13.878 7.543,-15.043 -0.416,-0.426 -1.324,-0.032 -1.802,0.32 -1.521,1.12 -4.911,4.378 -6.191,5.296 -1.497,1.074 -3.785,0.74 -4.778,0.524 -0.287,-0.063 -0.573,0.095 -0.679,0.368 z"
   id="path230" />&#10;		<polygon
   style="opacity:0.2;enable-background:new"
   points="138.343,416.109 148.484,417.777 150.369,412.21 139.611,408.936 "
   id="polygon230" />&#10;		<path
   style="fill:#263238"
   d="m 148.623,411.159 c 0,0 -41.346,-23.243 -55.612,-22.582 -14.266,0.661 -16.325,13.239 -10.439,21.111 5.886,7.872 16.755,9.789 16.755,9.789 0,0 -7.4,-10.458 -6.33,-13.4 1.069,-2.942 5.257,1.163 5.257,1.163 0,0 26.011,8.4 48.765,10.328 z"
   id="path231" />&#10;		<g
   id="g232">&#10;			<polygon
   style="fill:rgb(99 89 133)"
   points="149.289,410.519 146.949,408.947 143.943,418.183 147.553,418.183 "
   id="polygon231" />&#10;			<polygon
   style="opacity:0.6;fill:rgb(72 72 72);enable-background:new"
   points="149.289,410.519 146.949,408.947 143.943,418.183 147.553,418.183 "
   id="polygon232" />&#10;		</g>&#10;	</g>&#10;</g>&#10;</svg>
